<?xml version="1.0" standalone="no"?>
 <!DOCTYPE svg PUBLIC "-//W3C//DTD SVG 1.1//EN" 
 "http://www.w3.org/Graphics/SVG/1.1/DTD/svg11.dtd"> 
<svg
  xmlns:svg="http://www.w3.org/2000/svg"
  xmlns="http://www.w3.org/2000/svg"
  xmlns:xlink="http://www.w3.org/1999/xlink"
  version="1.1"
  width="53.0860mm" height="53.0860mm" viewBox="0.0000 0.0000 53.0860 53.0860">
<title>SVG Image created as assembly.svg date 2026/10/05 05:46:05 </title>
  <desc>Image generated by PCBNEW </desc>
<g style="fill:#000000; fill-opacity:1.0000;stroke:#000000; stroke-opacity:1.0000;
stroke-linecap:round; stroke-linejoin:round;"
 transform="translate(0 0) scale(1 1)">
</g>
<g style="fill:#000000; fill-opacity:0.0; 
stroke:#000000; stroke-width:0.0000; stroke-opacity:1; 
stroke-linecap:round; stroke-linejoin:round;">
</g>
<g style="fill:#000000; fill-opacity:0.0; 
stroke:#000000; stroke-width:0.0500; stroke-opacity:1; 
stroke-linecap:round; stroke-linejoin:round;">
<circle cx="26.5500" cy="50.3000" r="2.4500" /> 
<path d="M19.8500 34.8000
L19.8500 43.3000
" />
<path d="M19.8500 43.3000
L33.2500 43.3000
" />
<path d="M33.2500 34.8000
L19.8500 34.8000
" />
<path d="M33.2500 43.3000
L33.2500 34.8000
" />
<path d="M8.8000 27.8500
L8.8000 23.2500
" />
<path d="M11.1000 27.8500
L8.8000 27.8500
" />
<path d="M8.8000 23.2500
L11.1000 23.2500
" />
<path d="M11.1000 23.2500
L11.1000 27.8500
" />
<path d="M11.1700 22.4200
L14.1300 22.4200
" />
<path d="M11.1700 23.8800
L11.1700 22.4200
" />
<path d="M14.1300 22.4200
L14.1300 23.8800
" />
<path d="M14.1300 23.8800
L11.1700 23.8800
" />
<path d="M13.1000 39.1000
L19.0000 39.1000
" />
<path d="M13.1000 43.0000
L13.1000 39.1000
" />
<path d="M19.0000 39.1000
L19.0000 43.0000
" />
<path d="M19.0000 43.0000
L13.1000 43.0000
" />
<path d="M14.4500 30.2000
L14.4500 27.9000
" />
<path d="M14.4500 30.2000
L10.0500 30.2000
" />
<path d="M10.0500 30.2000
L10.0500 27.9000
" />
<path d="M10.0500 27.9000
L14.4500 27.9000
" />
<path d="M37.6700 15.8200
L40.6300 15.8200
" />
<path d="M37.6700 17.2800
L37.6700 15.8200
" />
<path d="M40.6300 15.8200
L40.6300 17.2800
" />
<path d="M40.6300 17.2800
L37.6700 17.2800
" />
<path d="M18.6000 27.2500
L18.6000 23.8500
" />
<path d="M18.6000 23.8500
L14.5000 23.8500
" />
<path d="M14.5000 27.2500
L18.6000 27.2500
" />
<path d="M14.5000 23.8500
L14.5000 27.2500
" />
<path d="M40.1300 22.8500
L40.1300 26.2500
" />
<path d="M40.1300 26.2500
L43.9700 26.2500
" />
<path d="M43.9700 22.8500
L40.1300 22.8500
" />
<path d="M43.9700 26.2500
L43.9700 22.8500
" />
<path d="M30.8500 18.8500
L30.8500 24.2500
" />
<path d="M30.8500 24.2500
L38.2500 24.2500
" />
<path d="M38.2500 18.8500
L30.8500 18.8500
" />
<path d="M38.2500 24.2500
L38.2500 18.8500
" />
<path d="M41.8000 33.3000
L39.3000 33.3000
" />
<path d="M41.8000 33.3000
L41.8000 36.6000
" />
<path d="M39.3000 36.6000
L39.3000 33.3000
" />
<path d="M39.3000 36.6000
L41.8000 36.6000
" />
<path d="M3.8000 31.0500
L3.8000 24.0500
" />
<path d="M7.3000 31.0500
L3.8000 31.0500
" />
<path d="M3.8000 24.0500
L7.3000 24.0500
" />
<path d="M7.3000 24.0500
L7.3000 31.0500
" />
<path d="M19.6800 20.4700
L19.6800 23.4300
" />
<path d="M18.2200 20.4700
L19.6800 20.4700
" />
<path d="M19.6800 23.4300
L18.2200 23.4300
" />
<path d="M18.2200 23.4300
L18.2200 20.4700
" />
<path d="M18.0300 28.9800
L15.0700 28.9800
" />
<path d="M18.0300 27.5200
L18.0300 28.9800
" />
<path d="M15.0700 28.9800
L15.0700 27.5200
" />
<path d="M15.0700 27.5200
L18.0300 27.5200
" />
<path d="M28.4200 23.5300
L28.4200 20.5700
" />
<path d="M29.8800 23.5300
L28.4200 23.5300
" />
<path d="M28.4200 20.5700
L29.8800 20.5700
" />
<path d="M29.8800 20.5700
L29.8800 23.5300
" />
<path d="M36.6000 33.2300
L36.6000 29.8700
" />
<path d="M38.5000 33.2300
L36.6000 33.2300
" />
<path d="M36.6000 29.8700
L38.5000 29.8700
" />
<path d="M38.5000 29.8700
L38.5000 33.2300
" />
<path d="M21.4000 33.4500
L21.4000 28.8500
" />
<path d="M23.7000 33.4500
L21.4000 33.4500
" />
<path d="M21.4000 28.8500
L23.7000 28.8500
" />
<path d="M23.7000 28.8500
L23.7000 33.4500
" />
<path d="M18.8000 33.4500
L18.8000 28.8500
" />
<path d="M21.1000 33.4500
L18.8000 33.4500
" />
<path d="M18.8000 28.8500
L21.1000 28.8500
" />
<path d="M21.1000 28.8500
L21.1000 33.4500
" />
<path d="M19.8200 23.4300
L19.8200 20.4700
" />
<path d="M21.2800 23.4300
L19.8200 23.4300
" />
<path d="M19.8200 20.4700
L21.2800 20.4700
" />
<path d="M21.2800 20.4700
L21.2800 23.4300
" />
<path d="M11.3000 31.5500
L11.3000 38.5500
" />
<path d="M7.8000 31.5500
L11.3000 31.5500
" />
<path d="M11.3000 38.5500
L7.8000 38.5500
" />
<path d="M7.8000 38.5500
L7.8000 31.5500
" />
<path d="M39.6000 33.2300
L39.6000 29.8700
" />
<path d="M41.5000 33.2300
L39.6000 33.2300
" />
<path d="M39.6000 29.8700
L41.5000 29.8700
" />
<path d="M41.5000 29.8700
L41.5000 33.2300
" />
<circle cx="40.5500" cy="7.3700" r="2.4500" /> 
<path d="M13.8000 35.0500
L18.3000 35.0500
" />
<path d="M18.3000 35.0500
L18.3000 30.4500
" />
<path d="M13.8000 30.4500
L13.8000 35.0500
" />
<path d="M18.3000 30.4500
L13.8000 30.4500
" />
<circle cx="12.5500" cy="7.3700" r="2.4500" /> 
<path d="M42.8200 33.0300
L42.8200 30.0700
" />
<path d="M44.2800 33.0300
L42.8200 33.0300
" />
<path d="M42.8200 30.0700
L44.2800 30.0700
" />
<path d="M44.2800 30.0700
L44.2800 33.0300
" />
<path d="M14.3300 26.2800
L11.3700 26.2800
" />
<path d="M14.3300 24.8200
L14.3300 26.2800
" />
<path d="M11.3700 26.2800
L11.3700 24.8200
" />
<path d="M11.3700 24.8200
L14.3300 24.8200
" />
<g >
</g>
<g >
</g>
<g >
</g>
<g >
</g>
<g >
</g>
<g >
</g>
<g >
</g>
<g >
</g>
<g >
</g>
<g >
</g>
<g >
</g>
<g >
</g>
<g >
</g>
<g >
</g>
<g >
</g>
<g >
</g>
<g >
</g>
<g >
</g>
<g >
</g>
<g >
</g>
<g >
</g>
<g >
</g>
<g >
</g>
<g >
</g>
<g >
</g>
<g >
</g>
<g >
</g>
<g >
</g>
<g >
</g>
<g >
</g>
</g>
<g style="fill:#000000; fill-opacity:0.0; 
stroke:#000000; stroke-width:0.0500; stroke-opacity:1; 
stroke-linecap:round; stroke-linejoin:round;">
</g>
<g style="fill:#000000; fill-opacity:0.0; 
stroke:#000000; stroke-width:0.1500; stroke-opacity:1; 
stroke-linecap:round; stroke-linejoin:round;">
<text x="26.5500" y="50.8000"
textLength="2.2500" font-size="1.3333" lengthAdjust="spacingAndGlyphs"
text-anchor="middle" opacity="0">H3</text>
<g class="stroked-text"><desc>H3</desc>
<path d="M25.7881 50.7548
L25.7881 49.7548
" />
<path d="M25.7881 50.2310
L26.3595 50.2310
" />
<path d="M26.3595 50.7548
L26.3595 49.7548
" />
<path d="M26.7405 49.7548
L27.3595 49.7548
" />
<path d="M27.3595 49.7548
L27.0262 50.1358
" />
<path d="M27.0262 50.1358
L27.1690 50.1358
" />
<path d="M27.1690 50.1358
L27.2643 50.1834
" />
<path d="M27.2643 50.1834
L27.3119 50.2310
" />
<path d="M27.3119 50.2310
L27.3595 50.3262
" />
<path d="M27.3595 50.3262
L27.3595 50.5643
" />
<path d="M27.3595 50.5643
L27.3119 50.6596
" />
<path d="M27.3119 50.6596
L27.2643 50.7072
" />
<path d="M27.2643 50.7072
L27.1690 50.7548
" />
<path d="M27.1690 50.7548
L26.8833 50.7548
" />
<path d="M26.8833 50.7548
L26.7881 50.7072
" />
<path d="M26.7881 50.7072
L26.7405 50.6596
" />
</g><text x="26.5500" y="39.0500"
textLength="1.9643" font-size="1.3333" lengthAdjust="spacingAndGlyphs"
text-anchor="middle" opacity="0">J1</text>
<g class="stroked-text"><desc>J1</desc>
<path d="M26.2167 38.0048
L26.2167 38.7191
" />
<path d="M26.2167 38.7191
L26.1690 38.8620
" />
<path d="M26.1690 38.8620
L26.0738 38.9572
" />
<path d="M26.0738 38.9572
L25.9310 39.0048
" />
<path d="M25.9310 39.0048
L25.8357 39.0048
" />
<path d="M27.2167 39.0048
L26.6452 39.0048
" />
<path d="M26.9310 39.0048
L26.9310 38.0048
" />
<path d="M26.9310 38.0048
L26.8357 38.1477
" />
<path d="M26.8357 38.1477
L26.7405 38.2429
" />
<path d="M26.7405 38.2429
L26.6452 38.2905
" />
</g></g>
<g style="fill:#000000; fill-opacity:0.0; 
stroke:#000000; stroke-width:0.1200; stroke-opacity:1; 
stroke-linecap:round; stroke-linejoin:round;">
<g transform="rotate(-90.000000 9.9500 25.5500)">
<text x="9.9500" y="25.9500"
textLength="1.7619" font-size="1.0667" lengthAdjust="spacingAndGlyphs"
text-anchor="middle" opacity="0">C1</text>
</g>
<g class="stroked-text"><desc>C1</desc>
<path d="M10.2377 25.6833
L10.2758 25.7214
" />
<path d="M10.2758 25.7214
L10.3139 25.8357
" />
<path d="M10.3139 25.8357
L10.3139 25.9119
" />
<path d="M10.3139 25.9119
L10.2758 26.0262
" />
<path d="M10.2758 26.0262
L10.1996 26.1024
" />
<path d="M10.1996 26.1024
L10.1234 26.1405
" />
<path d="M10.1234 26.1405
L9.9710 26.1786
" />
<path d="M9.9710 26.1786
L9.8567 26.1786
" />
<path d="M9.8567 26.1786
L9.7043 26.1405
" />
<path d="M9.7043 26.1405
L9.6281 26.1024
" />
<path d="M9.6281 26.1024
L9.5519 26.0262
" />
<path d="M9.5519 26.0262
L9.5139 25.9119
" />
<path d="M9.5139 25.9119
L9.5139 25.8357
" />
<path d="M9.5139 25.8357
L9.5519 25.7214
" />
<path d="M9.5519 25.7214
L9.5900 25.6833
" />
<path d="M10.3139 24.9214
L10.3139 25.3786
" />
<path d="M10.3139 25.1500
L9.5139 25.1500
" />
<path d="M9.5139 25.1500
L9.6281 25.2262
" />
<path d="M9.6281 25.2262
L9.7043 25.3024
" />
<path d="M9.7043 25.3024
L9.7424 25.3786
" />
</g></g>
<g style="fill:#000000; fill-opacity:0.0; 
stroke:#000000; stroke-width:0.0600; stroke-opacity:1; 
stroke-linecap:round; stroke-linejoin:round;">
<text x="12.6500" y="23.3500"
textLength="0.8810" font-size="0.5333" lengthAdjust="spacingAndGlyphs"
text-anchor="middle" opacity="0">R1</text>
<g class="stroked-text"><desc>R1</desc>
<path d="M12.5833 23.3319
L12.4500 23.1415
" />
<path d="M12.3548 23.3319
L12.3548 22.9319
" />
<path d="M12.3548 22.9319
L12.5071 22.9319
" />
<path d="M12.5071 22.9319
L12.5452 22.9510
" />
<path d="M12.5452 22.9510
L12.5643 22.9700
" />
<path d="M12.5643 22.9700
L12.5833 23.0081
" />
<path d="M12.5833 23.0081
L12.5833 23.0653
" />
<path d="M12.5833 23.0653
L12.5643 23.1034
" />
<path d="M12.5643 23.1034
L12.5452 23.1224
" />
<path d="M12.5452 23.1224
L12.5071 23.1415
" />
<path d="M12.5071 23.1415
L12.3548 23.1415
" />
<path d="M12.9643 23.3319
L12.7357 23.3319
" />
<path d="M12.8500 23.3319
L12.8500 22.9319
" />
<path d="M12.8500 22.9319
L12.8119 22.9891
" />
<path d="M12.8119 22.9891
L12.7738 23.0272
" />
<path d="M12.7738 23.0272
L12.7357 23.0462
" />
</g></g>
<g style="fill:#000000; fill-opacity:0.0; 
stroke:#000000; stroke-width:0.1500; stroke-opacity:1; 
stroke-linecap:round; stroke-linejoin:round;">
<text x="16.0500" y="41.5500"
textLength="2.0595" font-size="1.3333" lengthAdjust="spacingAndGlyphs"
text-anchor="middle" opacity="0">F1</text>
<g class="stroked-text"><desc>F1</desc>
<path d="M15.7167 40.9810
L15.3833 40.9810
" />
<path d="M15.3833 41.5048
L15.3833 40.5048
" />
<path d="M15.3833 40.5048
L15.8595 40.5048
" />
<path d="M16.7643 41.5048
L16.1929 41.5048
" />
<path d="M16.4786 41.5048
L16.4786 40.5048
" />
<path d="M16.4786 40.5048
L16.3833 40.6477
" />
<path d="M16.3833 40.6477
L16.2881 40.7429
" />
<path d="M16.2881 40.7429
L16.1929 40.7905
" />
</g><text x="12.3770" y="31.4550"
textLength="2.2024" font-size="1.3333" lengthAdjust="spacingAndGlyphs"
text-anchor="middle" opacity="0">D3</text>
<g class="stroked-text"><desc>D3</desc>
<path d="M11.6389 31.4098
L11.6389 30.4098
" />
<path d="M11.6389 30.4098
L11.8770 30.4098
" />
<path d="M11.8770 30.4098
L12.0199 30.4574
" />
<path d="M12.0199 30.4574
L12.1151 30.5527
" />
<path d="M12.1151 30.5527
L12.1627 30.6479
" />
<path d="M12.1627 30.6479
L12.2103 30.8384
" />
<path d="M12.2103 30.8384
L12.2103 30.9812
" />
<path d="M12.2103 30.9812
L12.1627 31.1717
" />
<path d="M12.1627 31.1717
L12.1151 31.2670
" />
<path d="M12.1151 31.2670
L12.0199 31.3622
" />
<path d="M12.0199 31.3622
L11.8770 31.4098
" />
<path d="M11.8770 31.4098
L11.6389 31.4098
" />
<path d="M12.5437 30.4098
L13.1627 30.4098
" />
<path d="M13.1627 30.4098
L12.8294 30.7908
" />
<path d="M12.8294 30.7908
L12.9722 30.7908
" />
<path d="M12.9722 30.7908
L13.0675 30.8384
" />
<path d="M13.0675 30.8384
L13.1151 30.8860
" />
<path d="M13.1151 30.8860
L13.1627 30.9812
" />
<path d="M13.1627 30.9812
L13.1627 31.2193
" />
<path d="M13.1627 31.2193
L13.1151 31.3146
" />
<path d="M13.1151 31.3146
L13.0675 31.3622
" />
<path d="M13.0675 31.3622
L12.9722 31.4098
" />
<path d="M12.9722 31.4098
L12.6865 31.4098
" />
<path d="M12.6865 31.4098
L12.5913 31.3622
" />
<path d="M12.5913 31.3622
L12.5437 31.3146
" />
</g></g>
<g style="fill:#000000; fill-opacity:0.0; 
stroke:#000000; stroke-width:0.0600; stroke-opacity:1; 
stroke-linecap:round; stroke-linejoin:round;">
<text x="39.1500" y="16.7500"
textLength="0.8810" font-size="0.5333" lengthAdjust="spacingAndGlyphs"
text-anchor="middle" opacity="0">C7</text>
<g class="stroked-text"><desc>C7</desc>
<path d="M39.0833 16.6938
L39.0643 16.7129
" />
<path d="M39.0643 16.7129
L39.0071 16.7319
" />
<path d="M39.0071 16.7319
L38.9690 16.7319
" />
<path d="M38.9690 16.7319
L38.9119 16.7129
" />
<path d="M38.9119 16.7129
L38.8738 16.6748
" />
<path d="M38.8738 16.6748
L38.8548 16.6367
" />
<path d="M38.8548 16.6367
L38.8357 16.5605
" />
<path d="M38.8357 16.5605
L38.8357 16.5034
" />
<path d="M38.8357 16.5034
L38.8548 16.4272
" />
<path d="M38.8548 16.4272
L38.8738 16.3891
" />
<path d="M38.8738 16.3891
L38.9119 16.3510
" />
<path d="M38.9119 16.3510
L38.9690 16.3319
" />
<path d="M38.9690 16.3319
L39.0071 16.3319
" />
<path d="M39.0071 16.3319
L39.0643 16.3510
" />
<path d="M39.0643 16.3510
L39.0833 16.3700
" />
<path d="M39.2167 16.3319
L39.4833 16.3319
" />
<path d="M39.4833 16.3319
L39.3119 16.7319
" />
</g><text x="16.5500" y="25.7500"
textLength="0.9000" font-size="0.5333" lengthAdjust="spacingAndGlyphs"
text-anchor="middle" opacity="0">U1</text>
<g class="stroked-text"><desc>U1</desc>
<path d="M16.2452 25.3319
L16.2452 25.6557
" />
<path d="M16.2452 25.6557
L16.2643 25.6938
" />
<path d="M16.2643 25.6938
L16.2833 25.7129
" />
<path d="M16.2833 25.7129
L16.3214 25.7319
" />
<path d="M16.3214 25.7319
L16.3976 25.7319
" />
<path d="M16.3976 25.7319
L16.4357 25.7129
" />
<path d="M16.4357 25.7129
L16.4548 25.6938
" />
<path d="M16.4548 25.6938
L16.4738 25.6557
" />
<path d="M16.4738 25.6557
L16.4738 25.3319
" />
<path d="M16.8738 25.7319
L16.6452 25.7319
" />
<path d="M16.7595 25.7319
L16.7595 25.3319
" />
<path d="M16.7595 25.3319
L16.7214 25.3891
" />
<path d="M16.7214 25.3891
L16.6833 25.4272
" />
<path d="M16.6833 25.4272
L16.6452 25.4462
" />
</g></g>
<g style="fill:#000000; fill-opacity:0.0; 
stroke:#000000; stroke-width:0.0500; stroke-opacity:1; 
stroke-linecap:round; stroke-linejoin:round;">
<text x="42.0500" y="24.7100"
textLength="0.7108" font-size="0.4267" lengthAdjust="spacingAndGlyphs"
text-anchor="middle" opacity="0">D4</text>
<g class="stroked-text"><desc>D4</desc>
<path d="M41.8138 24.6954
L41.8138 24.3754
" />
<path d="M41.8138 24.3754
L41.8900 24.3754
" />
<path d="M41.8900 24.3754
L41.9357 24.3907
" />
<path d="M41.9357 24.3907
L41.9662 24.4212
" />
<path d="M41.9662 24.4212
L41.9814 24.4516
" />
<path d="M41.9814 24.4516
L41.9967 24.5126
" />
<path d="M41.9967 24.5126
L41.9967 24.5583
" />
<path d="M41.9967 24.5583
L41.9814 24.6192
" />
<path d="M41.9814 24.6192
L41.9662 24.6497
" />
<path d="M41.9662 24.6497
L41.9357 24.6802
" />
<path d="M41.9357 24.6802
L41.8900 24.6954
" />
<path d="M41.8900 24.6954
L41.8138 24.6954
" />
<path d="M42.2710 24.4821
L42.2710 24.6954
" />
<path d="M42.1948 24.3602
L42.1186 24.5888
" />
<path d="M42.1186 24.5888
L42.3167 24.5888
" />
</g></g>
<g style="fill:#000000; fill-opacity:0.0; 
stroke:#000000; stroke-width:0.1500; stroke-opacity:1; 
stroke-linecap:round; stroke-linejoin:round;">
<text x="34.5500" y="22.0400"
textLength="2.2140" font-size="1.3067" lengthAdjust="spacingAndGlyphs"
text-anchor="middle" opacity="0">U2</text>
<g class="stroked-text"><desc>U2</desc>
<path d="M33.8033 21.0156
L33.8033 21.8089
" />
<path d="M33.8033 21.8089
L33.8500 21.9022
" />
<path d="M33.8500 21.9022
L33.8967 21.9489
" />
<path d="M33.8967 21.9489
L33.9900 21.9956
" />
<path d="M33.9900 21.9956
L34.1767 21.9956
" />
<path d="M34.1767 21.9956
L34.2700 21.9489
" />
<path d="M34.2700 21.9489
L34.3167 21.9022
" />
<path d="M34.3167 21.9022
L34.3633 21.8089
" />
<path d="M34.3633 21.8089
L34.3633 21.0156
" />
<path d="M34.7833 21.1089
L34.8300 21.0622
" />
<path d="M34.8300 21.0622
L34.9233 21.0156
" />
<path d="M34.9233 21.0156
L35.1567 21.0156
" />
<path d="M35.1567 21.0156
L35.2500 21.0622
" />
<path d="M35.2500 21.0622
L35.2967 21.1089
" />
<path d="M35.2967 21.1089
L35.3433 21.2022
" />
<path d="M35.3433 21.2022
L35.3433 21.2956
" />
<path d="M35.3433 21.2956
L35.2967 21.4356
" />
<path d="M35.2967 21.4356
L34.7367 21.9956
" />
<path d="M34.7367 21.9956
L35.3433 21.9956
" />
</g><g transform="rotate(-90.000000 3.0500 27.5500)">
<text x="3.0500" y="28.0500"
textLength="2.2024" font-size="1.3333" lengthAdjust="spacingAndGlyphs"
text-anchor="middle" opacity="0">D2</text>
</g>
<g class="stroked-text"><desc>D2</desc>
<path d="M3.5048 28.2881
L2.5048 28.2881
" />
<path d="M2.5048 28.2881
L2.5048 28.0500
" />
<path d="M2.5048 28.0500
L2.5524 27.9071
" />
<path d="M2.5524 27.9071
L2.6477 27.8119
" />
<path d="M2.6477 27.8119
L2.7429 27.7643
" />
<path d="M2.7429 27.7643
L2.9334 27.7167
" />
<path d="M2.9334 27.7167
L3.0762 27.7167
" />
<path d="M3.0762 27.7167
L3.2667 27.7643
" />
<path d="M3.2667 27.7643
L3.3620 27.8119
" />
<path d="M3.3620 27.8119
L3.4572 27.9071
" />
<path d="M3.4572 27.9071
L3.5048 28.0500
" />
<path d="M3.5048 28.0500
L3.5048 28.2881
" />
<path d="M2.6001 27.3357
L2.5524 27.2881
" />
<path d="M2.5524 27.2881
L2.5048 27.1929
" />
<path d="M2.5048 27.1929
L2.5048 26.9548
" />
<path d="M2.5048 26.9548
L2.5524 26.8595
" />
<path d="M2.5524 26.8595
L2.6001 26.8119
" />
<path d="M2.6001 26.8119
L2.6953 26.7643
" />
<path d="M2.6953 26.7643
L2.7905 26.7643
" />
<path d="M2.7905 26.7643
L2.9334 26.8119
" />
<path d="M2.9334 26.8119
L3.5048 27.3833
" />
<path d="M3.5048 27.3833
L3.5048 26.7643
" />
</g></g>
<g style="fill:#000000; fill-opacity:0.0; 
stroke:#000000; stroke-width:0.0600; stroke-opacity:1; 
stroke-linecap:round; stroke-linejoin:round;">
<g transform="rotate(-90.000000 18.9500 21.9500)">
<text x="18.9500" y="22.1500"
textLength="0.8810" font-size="0.5333" lengthAdjust="spacingAndGlyphs"
text-anchor="middle" opacity="0">R3</text>
</g>
<g class="stroked-text"><desc>R3</desc>
<path d="M19.1319 22.0167
L18.9415 22.1500
" />
<path d="M19.1319 22.2452
L18.7319 22.2452
" />
<path d="M18.7319 22.2452
L18.7319 22.0929
" />
<path d="M18.7319 22.0929
L18.7510 22.0548
" />
<path d="M18.7510 22.0548
L18.7700 22.0357
" />
<path d="M18.7700 22.0357
L18.8081 22.0167
" />
<path d="M18.8081 22.0167
L18.8653 22.0167
" />
<path d="M18.8653 22.0167
L18.9034 22.0357
" />
<path d="M18.9034 22.0357
L18.9224 22.0548
" />
<path d="M18.9224 22.0548
L18.9415 22.0929
" />
<path d="M18.9415 22.0929
L18.9415 22.2452
" />
<path d="M18.7319 21.8833
L18.7319 21.6357
" />
<path d="M18.7319 21.6357
L18.8843 21.7690
" />
<path d="M18.8843 21.7690
L18.8843 21.7119
" />
<path d="M18.8843 21.7119
L18.9034 21.6738
" />
<path d="M18.9034 21.6738
L18.9224 21.6548
" />
<path d="M18.9224 21.6548
L18.9605 21.6357
" />
<path d="M18.9605 21.6357
L19.0557 21.6357
" />
<path d="M19.0557 21.6357
L19.0938 21.6548
" />
<path d="M19.0938 21.6548
L19.1129 21.6738
" />
<path d="M19.1129 21.6738
L19.1319 21.7119
" />
<path d="M19.1319 21.7119
L19.1319 21.8262
" />
<path d="M19.1319 21.8262
L19.1129 21.8643
" />
<path d="M19.1129 21.8643
L19.0938 21.8833
" />
</g><text x="16.5500" y="28.4500"
textLength="0.8810" font-size="0.5333" lengthAdjust="spacingAndGlyphs"
text-anchor="middle" opacity="0">C3</text>
<g class="stroked-text"><desc>C3</desc>
<path d="M16.4833 28.3938
L16.4643 28.4129
" />
<path d="M16.4643 28.4129
L16.4071 28.4319
" />
<path d="M16.4071 28.4319
L16.3690 28.4319
" />
<path d="M16.3690 28.4319
L16.3119 28.4129
" />
<path d="M16.3119 28.4129
L16.2738 28.3748
" />
<path d="M16.2738 28.3748
L16.2548 28.3367
" />
<path d="M16.2548 28.3367
L16.2357 28.2605
" />
<path d="M16.2357 28.2605
L16.2357 28.2034
" />
<path d="M16.2357 28.2034
L16.2548 28.1272
" />
<path d="M16.2548 28.1272
L16.2738 28.0891
" />
<path d="M16.2738 28.0891
L16.3119 28.0510
" />
<path d="M16.3119 28.0510
L16.3690 28.0319
" />
<path d="M16.3690 28.0319
L16.4071 28.0319
" />
<path d="M16.4071 28.0319
L16.4643 28.0510
" />
<path d="M16.4643 28.0510
L16.4833 28.0700
" />
<path d="M16.6167 28.0319
L16.8643 28.0319
" />
<path d="M16.8643 28.0319
L16.7310 28.1843
" />
<path d="M16.7310 28.1843
L16.7881 28.1843
" />
<path d="M16.7881 28.1843
L16.8262 28.2034
" />
<path d="M16.8262 28.2034
L16.8452 28.2224
" />
<path d="M16.8452 28.2224
L16.8643 28.2605
" />
<path d="M16.8643 28.2605
L16.8643 28.3557
" />
<path d="M16.8643 28.3557
L16.8452 28.3938
" />
<path d="M16.8452 28.3938
L16.8262 28.4129
" />
<path d="M16.8262 28.4129
L16.7881 28.4319
" />
<path d="M16.7881 28.4319
L16.6738 28.4319
" />
<path d="M16.6738 28.4319
L16.6357 28.4129
" />
<path d="M16.6357 28.4129
L16.6167 28.3938
" />
</g><g transform="rotate(-90.000000 29.1500 22.0500)">
<text x="29.1500" y="22.2500"
textLength="0.8810" font-size="0.5333" lengthAdjust="spacingAndGlyphs"
text-anchor="middle" opacity="0">C6</text>
</g>
<g class="stroked-text"><desc>C6</desc>
<path d="M29.2938 22.1167
L29.3129 22.1357
" />
<path d="M29.3129 22.1357
L29.3319 22.1929
" />
<path d="M29.3319 22.1929
L29.3319 22.2310
" />
<path d="M29.3319 22.2310
L29.3129 22.2881
" />
<path d="M29.3129 22.2881
L29.2748 22.3262
" />
<path d="M29.2748 22.3262
L29.2367 22.3452
" />
<path d="M29.2367 22.3452
L29.1605 22.3643
" />
<path d="M29.1605 22.3643
L29.1034 22.3643
" />
<path d="M29.1034 22.3643
L29.0272 22.3452
" />
<path d="M29.0272 22.3452
L28.9891 22.3262
" />
<path d="M28.9891 22.3262
L28.9510 22.2881
" />
<path d="M28.9510 22.2881
L28.9319 22.2310
" />
<path d="M28.9319 22.2310
L28.9319 22.1929
" />
<path d="M28.9319 22.1929
L28.9510 22.1357
" />
<path d="M28.9510 22.1357
L28.9700 22.1167
" />
<path d="M28.9319 21.7738
L28.9319 21.8500
" />
<path d="M28.9319 21.8500
L28.9510 21.8881
" />
<path d="M28.9510 21.8881
L28.9700 21.9071
" />
<path d="M28.9700 21.9071
L29.0272 21.9452
" />
<path d="M29.0272 21.9452
L29.1034 21.9643
" />
<path d="M29.1034 21.9643
L29.2557 21.9643
" />
<path d="M29.2557 21.9643
L29.2938 21.9452
" />
<path d="M29.2938 21.9452
L29.3129 21.9262
" />
<path d="M29.3129 21.9262
L29.3319 21.8881
" />
<path d="M29.3319 21.8881
L29.3319 21.8119
" />
<path d="M29.3319 21.8119
L29.3129 21.7738
" />
<path d="M29.3129 21.7738
L29.2938 21.7548
" />
<path d="M29.2938 21.7548
L29.2557 21.7357
" />
<path d="M29.2557 21.7357
L29.1605 21.7357
" />
<path d="M29.1605 21.7357
L29.1224 21.7548
" />
<path d="M29.1224 21.7548
L29.1034 21.7738
" />
<path d="M29.1034 21.7738
L29.0843 21.8119
" />
<path d="M29.0843 21.8119
L29.0843 21.8881
" />
<path d="M29.0843 21.8881
L29.1034 21.9262
" />
<path d="M29.1034 21.9262
L29.1224 21.9452
" />
<path d="M29.1224 21.9452
L29.1605 21.9643
" />
</g></g>
<g style="fill:#000000; fill-opacity:0.0; 
stroke:#000000; stroke-width:0.0800; stroke-opacity:1; 
stroke-linecap:round; stroke-linejoin:round;">
<g transform="rotate(-90.000000 37.5500 31.5500)">
<text x="37.5500" y="31.8000"
textLength="1.1162" font-size="0.6667" lengthAdjust="spacingAndGlyphs"
text-anchor="middle" opacity="0">R4</text>
</g>
<g class="stroked-text"><desc>R4</desc>
<path d="M37.7771 31.6333
L37.5391 31.8000
" />
<path d="M37.7771 31.9190
L37.2771 31.9190
" />
<path d="M37.2771 31.9190
L37.2771 31.7286
" />
<path d="M37.2771 31.7286
L37.3010 31.6810
" />
<path d="M37.3010 31.6810
L37.3248 31.6571
" />
<path d="M37.3248 31.6571
L37.3724 31.6333
" />
<path d="M37.3724 31.6333
L37.4438 31.6333
" />
<path d="M37.4438 31.6333
L37.4914 31.6571
" />
<path d="M37.4914 31.6571
L37.5152 31.6810
" />
<path d="M37.5152 31.6810
L37.5391 31.7286
" />
<path d="M37.5391 31.7286
L37.5391 31.9190
" />
<path d="M37.4438 31.2048
L37.7771 31.2048
" />
<path d="M37.2533 31.3238
L37.6105 31.4429
" />
<path d="M37.6105 31.4429
L37.6105 31.1333
" />
</g></g>
<g style="fill:#000000; fill-opacity:0.0; 
stroke:#000000; stroke-width:0.1200; stroke-opacity:1; 
stroke-linecap:round; stroke-linejoin:round;">
<g transform="rotate(-90.000000 22.5500 31.1500)">
<text x="22.5500" y="31.5500"
textLength="1.7619" font-size="1.0667" lengthAdjust="spacingAndGlyphs"
text-anchor="middle" opacity="0">C5</text>
</g>
<g class="stroked-text"><desc>C5</desc>
<path d="M22.8377 31.2833
L22.8758 31.3214
" />
<path d="M22.8758 31.3214
L22.9139 31.4357
" />
<path d="M22.9139 31.4357
L22.9139 31.5119
" />
<path d="M22.9139 31.5119
L22.8758 31.6262
" />
<path d="M22.8758 31.6262
L22.7996 31.7024
" />
<path d="M22.7996 31.7024
L22.7234 31.7405
" />
<path d="M22.7234 31.7405
L22.5710 31.7786
" />
<path d="M22.5710 31.7786
L22.4567 31.7786
" />
<path d="M22.4567 31.7786
L22.3043 31.7405
" />
<path d="M22.3043 31.7405
L22.2281 31.7024
" />
<path d="M22.2281 31.7024
L22.1519 31.6262
" />
<path d="M22.1519 31.6262
L22.1139 31.5119
" />
<path d="M22.1139 31.5119
L22.1139 31.4357
" />
<path d="M22.1139 31.4357
L22.1519 31.3214
" />
<path d="M22.1519 31.3214
L22.1900 31.2833
" />
<path d="M22.1139 30.5595
L22.1139 30.9405
" />
<path d="M22.1139 30.9405
L22.4948 30.9786
" />
<path d="M22.4948 30.9786
L22.4567 30.9405
" />
<path d="M22.4567 30.9405
L22.4186 30.8643
" />
<path d="M22.4186 30.8643
L22.4186 30.6738
" />
<path d="M22.4186 30.6738
L22.4567 30.5976
" />
<path d="M22.4567 30.5976
L22.4948 30.5595
" />
<path d="M22.4948 30.5595
L22.5710 30.5214
" />
<path d="M22.5710 30.5214
L22.7615 30.5214
" />
<path d="M22.7615 30.5214
L22.8377 30.5595
" />
<path d="M22.8377 30.5595
L22.8758 30.5976
" />
<path d="M22.8758 30.5976
L22.9139 30.6738
" />
<path d="M22.9139 30.6738
L22.9139 30.8643
" />
<path d="M22.9139 30.8643
L22.8758 30.9405
" />
<path d="M22.8758 30.9405
L22.8377 30.9786
" />
</g><g transform="rotate(-90.000000 19.9500 31.1500)">
<text x="19.9500" y="31.5500"
textLength="1.7619" font-size="1.0667" lengthAdjust="spacingAndGlyphs"
text-anchor="middle" opacity="0">C4</text>
</g>
<g class="stroked-text"><desc>C4</desc>
<path d="M20.2377 31.2833
L20.2758 31.3214
" />
<path d="M20.2758 31.3214
L20.3139 31.4357
" />
<path d="M20.3139 31.4357
L20.3139 31.5119
" />
<path d="M20.3139 31.5119
L20.2758 31.6262
" />
<path d="M20.2758 31.6262
L20.1996 31.7024
" />
<path d="M20.1996 31.7024
L20.1234 31.7405
" />
<path d="M20.1234 31.7405
L19.9710 31.7786
" />
<path d="M19.9710 31.7786
L19.8567 31.7786
" />
<path d="M19.8567 31.7786
L19.7043 31.7405
" />
<path d="M19.7043 31.7405
L19.6281 31.7024
" />
<path d="M19.6281 31.7024
L19.5519 31.6262
" />
<path d="M19.5519 31.6262
L19.5139 31.5119
" />
<path d="M19.5139 31.5119
L19.5139 31.4357
" />
<path d="M19.5139 31.4357
L19.5519 31.3214
" />
<path d="M19.5519 31.3214
L19.5900 31.2833
" />
<path d="M19.7805 30.5976
L20.3139 30.5976
" />
<path d="M19.4758 30.7881
L20.0472 30.9786
" />
<path d="M20.0472 30.9786
L20.0472 30.4833
" />
</g></g>
<g style="fill:#000000; fill-opacity:0.0; 
stroke:#000000; stroke-width:0.0600; stroke-opacity:1; 
stroke-linecap:round; stroke-linejoin:round;">
<g transform="rotate(-90.000000 20.5500 21.9500)">
<text x="20.5500" y="22.1500"
textLength="0.8810" font-size="0.5333" lengthAdjust="spacingAndGlyphs"
text-anchor="middle" opacity="0">R2</text>
</g>
<g class="stroked-text"><desc>R2</desc>
<path d="M20.7319 22.0167
L20.5415 22.1500
" />
<path d="M20.7319 22.2452
L20.3319 22.2452
" />
<path d="M20.3319 22.2452
L20.3319 22.0929
" />
<path d="M20.3319 22.0929
L20.3510 22.0548
" />
<path d="M20.3510 22.0548
L20.3700 22.0357
" />
<path d="M20.3700 22.0357
L20.4081 22.0167
" />
<path d="M20.4081 22.0167
L20.4653 22.0167
" />
<path d="M20.4653 22.0167
L20.5034 22.0357
" />
<path d="M20.5034 22.0357
L20.5224 22.0548
" />
<path d="M20.5224 22.0548
L20.5415 22.0929
" />
<path d="M20.5415 22.0929
L20.5415 22.2452
" />
<path d="M20.3700 21.8643
L20.3510 21.8452
" />
<path d="M20.3510 21.8452
L20.3319 21.8071
" />
<path d="M20.3319 21.8071
L20.3319 21.7119
" />
<path d="M20.3319 21.7119
L20.3510 21.6738
" />
<path d="M20.3510 21.6738
L20.3700 21.6548
" />
<path d="M20.3700 21.6548
L20.4081 21.6357
" />
<path d="M20.4081 21.6357
L20.4462 21.6357
" />
<path d="M20.4462 21.6357
L20.5034 21.6548
" />
<path d="M20.5034 21.6548
L20.7319 21.8833
" />
<path d="M20.7319 21.8833
L20.7319 21.6357
" />
</g></g>
<g style="fill:#000000; fill-opacity:0.0; 
stroke:#000000; stroke-width:0.1500; stroke-opacity:1; 
stroke-linecap:round; stroke-linejoin:round;">
<g transform="rotate(-90.000000 12.0500 35.0500)">
<text x="12.0500" y="35.5500"
textLength="2.2024" font-size="1.3333" lengthAdjust="spacingAndGlyphs"
text-anchor="middle" opacity="0">D1</text>
</g>
<g class="stroked-text"><desc>D1</desc>
<path d="M12.5048 35.7881
L11.5048 35.7881
" />
<path d="M11.5048 35.7881
L11.5048 35.5500
" />
<path d="M11.5048 35.5500
L11.5524 35.4071
" />
<path d="M11.5524 35.4071
L11.6477 35.3119
" />
<path d="M11.6477 35.3119
L11.7429 35.2643
" />
<path d="M11.7429 35.2643
L11.9334 35.2167
" />
<path d="M11.9334 35.2167
L12.0762 35.2167
" />
<path d="M12.0762 35.2167
L12.2667 35.2643
" />
<path d="M12.2667 35.2643
L12.3620 35.3119
" />
<path d="M12.3620 35.3119
L12.4572 35.4071
" />
<path d="M12.4572 35.4071
L12.5048 35.5500
" />
<path d="M12.5048 35.5500
L12.5048 35.7881
" />
<path d="M12.5048 34.2643
L12.5048 34.8357
" />
<path d="M12.5048 34.5500
L11.5048 34.5500
" />
<path d="M11.5048 34.5500
L11.6477 34.6452
" />
<path d="M11.6477 34.6452
L11.7429 34.7405
" />
<path d="M11.7429 34.7405
L11.7905 34.8357
" />
</g></g>
<g style="fill:#000000; fill-opacity:0.0; 
stroke:#000000; stroke-width:0.0800; stroke-opacity:1; 
stroke-linecap:round; stroke-linejoin:round;">
<g transform="rotate(-90.000000 40.5500 31.5500)">
<text x="40.5500" y="31.8000"
textLength="1.1162" font-size="0.6667" lengthAdjust="spacingAndGlyphs"
text-anchor="middle" opacity="0">R5</text>
</g>
<g class="stroked-text"><desc>R5</desc>
<path d="M40.7771 31.6333
L40.5391 31.8000
" />
<path d="M40.7771 31.9190
L40.2771 31.9190
" />
<path d="M40.2771 31.9190
L40.2771 31.7286
" />
<path d="M40.2771 31.7286
L40.3010 31.6810
" />
<path d="M40.3010 31.6810
L40.3248 31.6571
" />
<path d="M40.3248 31.6571
L40.3724 31.6333
" />
<path d="M40.3724 31.6333
L40.4438 31.6333
" />
<path d="M40.4438 31.6333
L40.4914 31.6571
" />
<path d="M40.4914 31.6571
L40.5152 31.6810
" />
<path d="M40.5152 31.6810
L40.5391 31.7286
" />
<path d="M40.5391 31.7286
L40.5391 31.9190
" />
<path d="M40.2771 31.1810
L40.2771 31.4190
" />
<path d="M40.2771 31.4190
L40.5152 31.4429
" />
<path d="M40.5152 31.4429
L40.4914 31.4190
" />
<path d="M40.4914 31.4190
L40.4676 31.3714
" />
<path d="M40.4676 31.3714
L40.4676 31.2524
" />
<path d="M40.4676 31.2524
L40.4914 31.2048
" />
<path d="M40.4914 31.2048
L40.5152 31.1810
" />
<path d="M40.5152 31.1810
L40.5629 31.1571
" />
<path d="M40.5629 31.1571
L40.6819 31.1571
" />
<path d="M40.6819 31.1571
L40.7295 31.1810
" />
<path d="M40.7295 31.1810
L40.7533 31.2048
" />
<path d="M40.7533 31.2048
L40.7771 31.2524
" />
<path d="M40.7771 31.2524
L40.7771 31.3714
" />
<path d="M40.7771 31.3714
L40.7533 31.4190
" />
<path d="M40.7533 31.4190
L40.7295 31.4429
" />
</g></g>
<g style="fill:#000000; fill-opacity:0.0; 
stroke:#000000; stroke-width:0.1500; stroke-opacity:1; 
stroke-linecap:round; stroke-linejoin:round;">
<text x="40.5500" y="7.8700"
textLength="2.2500" font-size="1.3333" lengthAdjust="spacingAndGlyphs"
text-anchor="middle" opacity="0">H2</text>
<g class="stroked-text"><desc>H2</desc>
<path d="M39.7881 7.8248
L39.7881 6.8248
" />
<path d="M39.7881 7.3010
L40.3595 7.3010
" />
<path d="M40.3595 7.8248
L40.3595 6.8248
" />
<path d="M40.7881 6.9201
L40.8357 6.8724
" />
<path d="M40.8357 6.8724
L40.9310 6.8248
" />
<path d="M40.9310 6.8248
L41.1690 6.8248
" />
<path d="M41.1690 6.8248
L41.2643 6.8724
" />
<path d="M41.2643 6.8724
L41.3119 6.9201
" />
<path d="M41.3119 6.9201
L41.3595 7.0153
" />
<path d="M41.3595 7.0153
L41.3595 7.1105
" />
<path d="M41.3595 7.1105
L41.3119 7.2534
" />
<path d="M41.3119 7.2534
L40.7405 7.8248
" />
<path d="M40.7405 7.8248
L41.3595 7.8248
" />
</g></g>
<g style="fill:#000000; fill-opacity:0.0; 
stroke:#000000; stroke-width:0.0750; stroke-opacity:1; 
stroke-linecap:round; stroke-linejoin:round;">
<g transform="rotate(-90.000000 16.0500 32.7500)">
<text x="16.0500" y="33.0000"
textLength="1.0060" font-size="0.6667" lengthAdjust="spacingAndGlyphs"
text-anchor="middle" opacity="0">L1</text>
</g>
<g class="stroked-text"><desc>L1</desc>
<path d="M16.2774 32.8333
L16.2774 33.0714
" />
<path d="M16.2774 33.0714
L15.7774 33.0714
" />
<path d="M16.2774 32.4048
L16.2774 32.6905
" />
<path d="M16.2774 32.5476
L15.7774 32.5476
" />
<path d="M15.7774 32.5476
L15.8488 32.5952
" />
<path d="M15.8488 32.5952
L15.8965 32.6429
" />
<path d="M15.8965 32.6429
L15.9203 32.6905
" />
</g></g>
<g style="fill:#000000; fill-opacity:0.0; 
stroke:#000000; stroke-width:0.1500; stroke-opacity:1; 
stroke-linecap:round; stroke-linejoin:round;">
<text x="12.5500" y="7.8700"
textLength="2.2500" font-size="1.3333" lengthAdjust="spacingAndGlyphs"
text-anchor="middle" opacity="0">H1</text>
<g class="stroked-text"><desc>H1</desc>
<path d="M11.7881 7.8248
L11.7881 6.8248
" />
<path d="M11.7881 7.3010
L12.3595 7.3010
" />
<path d="M12.3595 7.8248
L12.3595 6.8248
" />
<path d="M13.3595 7.8248
L12.7881 7.8248
" />
<path d="M13.0738 7.8248
L13.0738 6.8248
" />
<path d="M13.0738 6.8248
L12.9786 6.9677
" />
<path d="M12.9786 6.9677
L12.8833 7.0629
" />
<path d="M12.8833 7.0629
L12.7881 7.1105
" />
</g></g>
<g style="fill:#000000; fill-opacity:0.0; 
stroke:#000000; stroke-width:0.0600; stroke-opacity:1; 
stroke-linecap:round; stroke-linejoin:round;">
<g transform="rotate(-90.000000 43.5500 31.5500)">
<text x="43.5500" y="31.7500"
textLength="0.8810" font-size="0.5333" lengthAdjust="spacingAndGlyphs"
text-anchor="middle" opacity="0">C8</text>
</g>
<g class="stroked-text"><desc>C8</desc>
<path d="M43.6938 31.6167
L43.7129 31.6357
" />
<path d="M43.7129 31.6357
L43.7319 31.6929
" />
<path d="M43.7319 31.6929
L43.7319 31.7310
" />
<path d="M43.7319 31.7310
L43.7129 31.7881
" />
<path d="M43.7129 31.7881
L43.6748 31.8262
" />
<path d="M43.6748 31.8262
L43.6367 31.8452
" />
<path d="M43.6367 31.8452
L43.5605 31.8643
" />
<path d="M43.5605 31.8643
L43.5034 31.8643
" />
<path d="M43.5034 31.8643
L43.4272 31.8452
" />
<path d="M43.4272 31.8452
L43.3891 31.8262
" />
<path d="M43.3891 31.8262
L43.3510 31.7881
" />
<path d="M43.3510 31.7881
L43.3319 31.7310
" />
<path d="M43.3319 31.7310
L43.3319 31.6929
" />
<path d="M43.3319 31.6929
L43.3510 31.6357
" />
<path d="M43.3510 31.6357
L43.3700 31.6167
" />
<path d="M43.5034 31.3881
L43.4843 31.4262
" />
<path d="M43.4843 31.4262
L43.4653 31.4452
" />
<path d="M43.4653 31.4452
L43.4272 31.4643
" />
<path d="M43.4272 31.4643
L43.4081 31.4643
" />
<path d="M43.4081 31.4643
L43.3700 31.4452
" />
<path d="M43.3700 31.4452
L43.3510 31.4262
" />
<path d="M43.3510 31.4262
L43.3319 31.3881
" />
<path d="M43.3319 31.3881
L43.3319 31.3119
" />
<path d="M43.3319 31.3119
L43.3510 31.2738
" />
<path d="M43.3510 31.2738
L43.3700 31.2548
" />
<path d="M43.3700 31.2548
L43.4081 31.2357
" />
<path d="M43.4081 31.2357
L43.4272 31.2357
" />
<path d="M43.4272 31.2357
L43.4653 31.2548
" />
<path d="M43.4653 31.2548
L43.4843 31.2738
" />
<path d="M43.4843 31.2738
L43.5034 31.3119
" />
<path d="M43.5034 31.3119
L43.5034 31.3881
" />
<path d="M43.5034 31.3881
L43.5224 31.4262
" />
<path d="M43.5224 31.4262
L43.5415 31.4452
" />
<path d="M43.5415 31.4452
L43.5795 31.4643
" />
<path d="M43.5795 31.4643
L43.6557 31.4643
" />
<path d="M43.6557 31.4643
L43.6938 31.4452
" />
<path d="M43.6938 31.4452
L43.7129 31.4262
" />
<path d="M43.7129 31.4262
L43.7319 31.3881
" />
<path d="M43.7319 31.3881
L43.7319 31.3119
" />
<path d="M43.7319 31.3119
L43.7129 31.2738
" />
<path d="M43.7129 31.2738
L43.6938 31.2548
" />
<path d="M43.6938 31.2548
L43.6557 31.2357
" />
<path d="M43.6557 31.2357
L43.5795 31.2357
" />
<path d="M43.5795 31.2357
L43.5415 31.2548
" />
<path d="M43.5415 31.2548
L43.5224 31.2738
" />
<path d="M43.5224 31.2738
L43.5034 31.3119
" />
</g><text x="12.8500" y="25.7500"
textLength="0.8810" font-size="0.5333" lengthAdjust="spacingAndGlyphs"
text-anchor="middle" opacity="0">C2</text>
<g class="stroked-text"><desc>C2</desc>
<path d="M12.7833 25.6938
L12.7643 25.7129
" />
<path d="M12.7643 25.7129
L12.7071 25.7319
" />
<path d="M12.7071 25.7319
L12.6690 25.7319
" />
<path d="M12.6690 25.7319
L12.6119 25.7129
" />
<path d="M12.6119 25.7129
L12.5738 25.6748
" />
<path d="M12.5738 25.6748
L12.5548 25.6367
" />
<path d="M12.5548 25.6367
L12.5357 25.5605
" />
<path d="M12.5357 25.5605
L12.5357 25.5034
" />
<path d="M12.5357 25.5034
L12.5548 25.4272
" />
<path d="M12.5548 25.4272
L12.5738 25.3891
" />
<path d="M12.5738 25.3891
L12.6119 25.3510
" />
<path d="M12.6119 25.3510
L12.6690 25.3319
" />
<path d="M12.6690 25.3319
L12.7071 25.3319
" />
<path d="M12.7071 25.3319
L12.7643 25.3510
" />
<path d="M12.7643 25.3510
L12.7833 25.3700
" />
<path d="M12.9357 25.3700
L12.9548 25.3510
" />
<path d="M12.9548 25.3510
L12.9929 25.3319
" />
<path d="M12.9929 25.3319
L13.0881 25.3319
" />
<path d="M13.0881 25.3319
L13.1262 25.3510
" />
<path d="M13.1262 25.3510
L13.1452 25.3700
" />
<path d="M13.1452 25.3700
L13.1643 25.4081
" />
<path d="M13.1643 25.4081
L13.1643 25.4462
" />
<path d="M13.1643 25.4462
L13.1452 25.5034
" />
<path d="M13.1452 25.5034
L12.9167 25.7319
" />
<path d="M12.9167 25.7319
L13.1643 25.7319
" />
</g></g>
<g style="fill:#000000; fill-opacity:0.0; 
stroke:#000000; stroke-width:0.1000; stroke-opacity:1; 
stroke-linecap:round; stroke-linejoin:round;">
<path d="M20.5750 35.3000
L32.5250 35.3000
" />
<path d="M20.5750 40.3000
L20.5750 35.3000
" />
<path d="M20.5750 40.3000
L32.5250 40.3000
" />
<path d="M23.0500 40.3000
L23.5500 39.5929
" />
<path d="M23.3000 36.8000
L23.3000 37.3000
" />
<path d="M23.3000 37.3000
L23.8000 37.3000
" />
<path d="M23.5500 39.5929
L24.0500 40.3000
" />
<path d="M23.8000 36.8000
L23.3000 36.8000
" />
<path d="M23.8000 37.3000
L23.8000 36.8000
" />
<path d="M25.3000 36.8000
L25.3000 37.3000
" />
<path d="M25.3000 37.3000
L25.8000 37.3000
" />
<path d="M25.8000 36.8000
L25.3000 36.8000
" />
<path d="M25.8000 37.3000
L25.8000 36.8000
" />
<path d="M27.3000 36.8000
L27.3000 37.3000
" />
<path d="M27.3000 37.3000
L27.8000 37.3000
" />
<path d="M27.8000 36.8000
L27.3000 36.8000
" />
<path d="M27.8000 37.3000
L27.8000 36.8000
" />
<path d="M29.3000 36.8000
L29.3000 37.3000
" />
<path d="M29.3000 37.3000
L29.8000 37.3000
" />
<path d="M29.8000 36.8000
L29.3000 36.8000
" />
<path d="M29.8000 37.3000
L29.8000 36.8000
" />
<path d="M32.5250 40.3000
L32.5250 35.3000
" />
<path d="M9.1500 27.1500
L9.1500 23.9500
" />
<path d="M10.7500 27.1500
L9.1500 27.1500
" />
<path d="M9.1500 23.9500
L10.7500 23.9500
" />
<path d="M10.7500 23.9500
L10.7500 27.1500
" />
<path d="M11.8500 22.7375
L13.4500 22.7375
" />
<path d="M11.8500 23.5625
L11.8500 22.7375
" />
<path d="M13.4500 22.7375
L13.4500 23.5625
" />
<path d="M13.4500 23.5625
L11.8500 23.5625
" />
<path d="M13.8000 39.4500
L18.3000 39.4500
" />
<path d="M13.8000 42.6500
L13.8000 39.4500
" />
<path d="M18.3000 39.4500
L18.3000 42.6500
" />
<path d="M18.3000 42.6500
L13.8000 42.6500
" />
<path d="M13.6500 29.9500
L10.8500 29.9500
" />
<path d="M13.6500 28.1500
L13.6500 29.9500
" />
<path d="M13.0000 29.0500
L12.6000 29.0500
" />
<path d="M12.6000 29.0500
L12.6000 29.6000
" />
<path d="M12.6000 29.0500
L12.6000 28.5000
" />
<path d="M12.6000 29.0500
L12.0000 29.4500
" />
<path d="M12.0000 29.4500
L12.0000 28.6500
" />
<path d="M12.0000 29.0500
L11.5000 29.0500
" />
<path d="M12.0000 28.6500
L12.6000 29.0500
" />
<path d="M10.8500 29.9500
L10.8500 28.1500
" />
<path d="M10.8500 28.1500
L13.6500 28.1500
" />
<path d="M38.3500 16.1500
L39.9500 16.1500
" />
<path d="M38.3500 16.9500
L38.3500 16.1500
" />
<path d="M39.9500 16.1500
L39.9500 16.9500
" />
<path d="M39.9500 16.9500
L38.3500 16.9500
" />
<path d="M17.3500 26.6000
L16.9500 27.0000
" />
<path d="M17.3500 24.1000
L17.3500 26.6000
" />
<path d="M16.9500 27.0000
L15.7500 27.0000
" />
<path d="M15.7500 27.0000
L15.7500 24.1000
" />
<path d="M15.7500 24.1000
L17.3500 24.1000
" />
<path d="M41.4000 23.4250
L41.7250 23.1000
" />
<path d="M41.4000 26.0000
L41.4000 23.4250
" />
<path d="M41.7250 23.1000
L42.7000 23.1000
" />
<path d="M42.7000 23.1000
L42.7000 26.0000
" />
<path d="M42.7000 26.0000
L41.4000 26.0000
" />
<path d="M32.6000 20.0750
L33.5750 19.1000
" />
<path d="M32.6000 24.0000
L32.6000 20.0750
" />
<path d="M33.5750 19.1000
L36.5000 19.1000
" />
<path d="M36.5000 19.1000
L36.5000 24.0000
" />
<path d="M36.5000 24.0000
L32.6000 24.0000
" />
<path d="M7.0500 29.8500
L4.0500 29.8500
" />
<path d="M4.7509 28.1994
L6.3511 28.1994
" />
<path d="M5.5510 28.1994
L5.5510 29.1011
" />
<path d="M5.5510 28.1994
L4.7509 27.0488
" />
<path d="M5.5510 28.1994
L6.3003 27.0488
" />
<path d="M5.5510 27.0488
L5.5510 26.0506
" />
<path d="M6.3003 27.0488
L4.7509 27.0488
" />
<path d="M4.0500 25.2500
L4.0500 29.8500
" />
<path d="M4.0500 25.2500
L7.0500 25.2500
" />
<path d="M7.0500 25.2500
L7.0500 29.8500
" />
<path d="M19.3625 21.1500
L19.3625 22.7500
" />
<path d="M18.5375 21.1500
L19.3625 21.1500
" />
<path d="M19.3625 22.7500
L18.5375 22.7500
" />
<path d="M18.5375 22.7500
L18.5375 21.1500
" />
<path d="M17.3500 28.6500
L15.7500 28.6500
" />
<path d="M17.3500 27.8500
L17.3500 28.6500
" />
<path d="M15.7500 28.6500
L15.7500 27.8500
" />
<path d="M15.7500 27.8500
L17.3500 27.8500
" />
<path d="M28.7500 22.8500
L28.7500 21.2500
" />
<path d="M29.5500 22.8500
L28.7500 22.8500
" />
<path d="M28.7500 21.2500
L29.5500 21.2500
" />
<path d="M29.5500 21.2500
L29.5500 22.8500
" />
<path d="M36.9250 32.5500
L36.9250 30.5500
" />
<path d="M38.1750 32.5500
L36.9250 32.5500
" />
<path d="M36.9250 30.5500
L38.1750 30.5500
" />
<path d="M38.1750 30.5500
L38.1750 32.5500
" />
<path d="M21.7500 32.7500
L21.7500 29.5500
" />
<path d="M23.3500 32.7500
L21.7500 32.7500
" />
<path d="M21.7500 29.5500
L23.3500 29.5500
" />
<path d="M23.3500 29.5500
L23.3500 32.7500
" />
<path d="M19.1500 32.7500
L19.1500 29.5500
" />
<path d="M20.7500 32.7500
L19.1500 32.7500
" />
<path d="M19.1500 29.5500
L20.7500 29.5500
" />
<path d="M20.7500 29.5500
L20.7500 32.7500
" />
<path d="M20.1375 22.7500
L20.1375 21.1500
" />
<path d="M20.9625 22.7500
L20.1375 22.7500
" />
<path d="M20.1375 21.1500
L20.9625 21.1500
" />
<path d="M20.9625 21.1500
L20.9625 22.7500
" />
<path d="M8.0500 32.7500
L11.0500 32.7500
" />
<path d="M10.3491 34.4006
L8.7489 34.4006
" />
<path d="M9.5490 34.4006
L9.5490 33.4989
" />
<path d="M9.5490 34.4006
L10.3491 35.5512
" />
<path d="M9.5490 34.4006
L8.7997 35.5512
" />
<path d="M9.5490 35.5512
L9.5490 36.5494
" />
<path d="M8.7997 35.5512
L10.3491 35.5512
" />
<path d="M11.0500 37.3500
L11.0500 32.7500
" />
<path d="M11.0500 37.3500
L8.0500 37.3500
" />
<path d="M8.0500 37.3500
L8.0500 32.7500
" />
<path d="M39.9250 32.5500
L39.9250 30.5500
" />
<path d="M41.1750 32.5500
L39.9250 32.5500
" />
<path d="M39.9250 30.5500
L41.1750 30.5500
" />
<path d="M41.1750 30.5500
L41.1750 32.5500
" />
<path d="M14.0500 34.7500
L18.0500 34.7500
" />
<path d="M18.0500 34.7500
L18.0500 30.7500
" />
<path d="M14.0500 30.7500
L14.0500 34.7500
" />
<path d="M18.0500 30.7500
L14.0500 30.7500
" />
<path d="M43.1500 32.3500
L43.1500 30.7500
" />
<path d="M43.9500 32.3500
L43.1500 32.3500
" />
<path d="M43.1500 30.7500
L43.9500 30.7500
" />
<path d="M43.9500 30.7500
L43.9500 32.3500
" />
<path d="M13.6500 25.9500
L12.0500 25.9500
" />
<path d="M13.6500 25.1500
L13.6500 25.9500
" />
<path d="M12.0500 25.9500
L12.0500 25.1500
" />
<path d="M12.0500 25.1500
L13.6500 25.1500
" />
<g >
</g>
<g >
</g>
<g >
</g>
<g >
</g>
<g >
</g>
<g >
</g>
<g >
</g>
<g >
</g>
<g >
</g>
<g >
</g>
<g >
</g>
<g >
</g>
<g >
</g>
<g >
</g>
<g >
</g>
<g >
</g>
<g >
</g>
<g >
</g>
<g >
</g>
<g >
</g>
<g >
</g>
<g >
</g>
<g >
</g>
<g >
</g>
<g >
</g>
<g >
</g>
<g >
</g>
<g >
</g>
<g >
</g>
<g >
</g>
</g>
<g style="fill:#000000; fill-opacity:0.0; 
stroke:#000000; stroke-width:0.1000; stroke-opacity:1; 
stroke-linecap:round; stroke-linejoin:round;">
<circle cx="26.5500" cy="26.5500" r="26.5000" /> 
<g >
</g>
<g >
</g>
<g >
</g>
<g >
</g>
<g >
</g>
<g >
</g>
<g >
</g>
<g >
</g>
<g >
</g>
<g >
</g>
<g >
</g>
<g >
</g>
<g >
</g>
<g >
</g>
<g >
</g>
<g >
</g>
<g >
</g>
<g >
</g>
<g >
</g>
<g >
</g>
<g >
</g>
<g >
</g>
<g >
</g>
<g >
</g>
<g >
</g>
<g >
</g>
<g >
</g>
<g >
</g>
<g >
</g>
<g >
</g>
</g> 
</svg>
