M48
; DRILL file KiCad 10.0.6 date 2026-09-24T20:47:43
; FORMAT={-:-/ absolute / metric / decimal}
; #@! TF.CreationDate,2026-09-24T20:47:43+00:00
; #@! TF.GenerationSoftware,Kicad,Pcbnew,10.0.6
; #@! TF.FileFunction,Plated,1,4,PTH
FMAT,2
METRIC
; #@! TA.AperFunction,Plated,PTH,ViaDrill
T1C0.300
; #@! TA.AperFunction,Plated,PTH,ComponentDrill
T2C0.600
; #@! TA.AperFunction,Plated,PTH,ComponentDrill
T3C1.000
; #@! TA.AperFunction,Plated,PTH,ComponentDrill
T4C1.400
; #@! TA.AperFunction,Plated,PTH,ComponentDrill
T5C6.400
%
G90
G05
T1
X102.95Y-55.95
X102.95Y-58.95
X102.95Y-61.95
X102.95Y-64.95
X102.95Y-67.95
X102.95Y-70.95
X102.95Y-73.95
X102.95Y-76.95
X102.95Y-79.95
X102.95Y-82.95
X102.95Y-85.95
X102.95Y-88.95
X102.95Y-91.95
X102.95Y-136.95
X102.95Y-139.95
X102.95Y-142.95
X102.95Y-145.95
X102.95Y-148.95
X102.95Y-151.95
X102.95Y-154.95
X102.95Y-157.95
X103.095Y-110.082
X103.574Y-103.739
X104.058Y-101.018
X104.13Y-98.504
X104.207Y-97.383
X104.336Y-137.652
X104.619Y-105.949
X105.831Y-113.742
X105.831Y-122.109
X105.859Y-117.003
X105.95Y-52.95
X105.95Y-55.95
X105.95Y-58.95
X105.95Y-61.95
X105.95Y-64.95
X105.95Y-67.95
X105.95Y-70.95
X105.95Y-73.95
X105.95Y-76.95
X105.95Y-79.95
X105.95Y-82.95
X105.95Y-85.95
X105.95Y-88.95
X105.95Y-91.95
X105.95Y-94.95
X105.95Y-103.95
X105.95Y-136.95
X105.95Y-145.95
X105.95Y-148.95
X105.95Y-151.95
X105.95Y-154.95
X105.95Y-157.95
X105.95Y-160.95
X106.184Y-98.126
X106.988Y-110.418
X107.1Y-137.8
X107.1Y-141.4
X107.1Y-142.6
X107.1Y-143.8
X107.293Y-56.024
X107.952Y-57.294
X108.15Y-133.9
X108.15Y-135.1
X108.3Y-137.8
X108.3Y-139.0
X108.3Y-140.2
X108.3Y-141.4
X108.3Y-142.6
X108.3Y-143.8
X108.791Y-117.029
X108.95Y-79.95
X108.95Y-82.95
X108.95Y-85.95
X108.95Y-88.95
X108.95Y-91.95
X109.029Y-102.266
X109.036Y-97.253
X109.05Y-133.9
X109.05Y-135.1
X109.199Y-99.103
X109.298Y-130.497
X109.5Y-139.0
X109.5Y-140.2
X109.5Y-141.4
X109.5Y-142.6
X109.5Y-143.8
X109.738Y-72.61
X109.779Y-77.298
X109.859Y-119.64
X109.877Y-105.893
X109.95Y-133.9
X109.95Y-135.1
X110.163Y-61.328
X110.249Y-130.475
X110.297Y-65.117
X110.338Y-73.75
X110.567Y-53.484
X110.7Y-137.8
X110.7Y-139.0
X110.7Y-140.2
X110.7Y-141.4
X110.7Y-142.6
X110.7Y-143.8
X110.722Y-114.635
X110.85Y-133.9
X110.85Y-135.1
X111.085Y-96.76
X111.087Y-130.489
X111.359Y-79.337
X111.781Y-110.4
X111.812Y-56.002
X111.9Y-137.8
X111.9Y-141.4
X111.9Y-142.6
X111.9Y-143.8
X111.95Y-88.95
X111.95Y-91.95
X112.195Y-130.905
X112.374Y-71.745
X112.684Y-67.464
X112.874Y-61.0
X113.535Y-66.355
X113.969Y-115.845
X114.033Y-96.082
X114.95Y-82.95
X114.95Y-85.95
X114.95Y-91.95
X114.95Y-100.95
X114.95Y-136.95
X114.95Y-139.95
X114.95Y-142.95
X114.95Y-145.95
X114.95Y-148.95
X114.95Y-151.95
X114.95Y-154.95
X114.95Y-157.95
X115.339Y-118.826
X115.387Y-112.699
X115.387Y-79.47
X115.737Y-111.034
X115.977Y-57.75
X116.03Y-143.754
X116.085Y-58.564
X116.091Y-108.42
X116.165Y-53.484
X116.284Y-74.078
X116.335Y-62.685
X116.42Y-105.6
X116.582Y-55.355
X116.843Y-75.573
X117.093Y-114.493
X117.566Y-67.35
X117.919Y-116.286
X117.95Y-79.95
X117.95Y-85.95
X117.95Y-88.95
X117.95Y-100.95
X117.95Y-136.95
X117.95Y-139.95
X117.95Y-142.95
X117.95Y-145.95
X117.95Y-148.95
X117.95Y-151.95
X117.95Y-154.95
X117.95Y-157.95
X119.036Y-72.742
X119.122Y-92.952
X119.275Y-70.722
X119.371Y-57.296
X119.378Y-59.834
X119.379Y-53.417
X119.534Y-54.886
X119.584Y-105.915
X120.137Y-79.475
X120.831Y-122.109
X120.844Y-115.542
X120.95Y-67.95
X120.95Y-82.95
X120.95Y-85.95
X120.95Y-88.95
X120.95Y-91.95
X120.95Y-100.95
X120.95Y-136.95
X120.95Y-145.95
X120.95Y-148.95
X120.95Y-151.95
X120.95Y-154.95
X120.95Y-157.95
X121.173Y-74.975
X122.053Y-105.612
X122.1Y-137.8
X122.1Y-141.4
X122.1Y-142.6
X122.1Y-143.8
X122.171Y-77.376
X122.246Y-67.487
X123.15Y-133.9
X123.15Y-135.1
X123.3Y-137.8
X123.3Y-139.0
X123.3Y-140.2
X123.3Y-141.4
X123.3Y-142.6
X123.3Y-143.8
X123.46Y-77.057
X123.797Y-117.035
X123.843Y-96.082
X123.893Y-118.967
X123.95Y-55.95
X123.95Y-157.95
X123.98Y-66.053
X123.984Y-101.037
X123.995Y-74.043
X124.05Y-133.9
X124.05Y-135.1
X124.5Y-130.495
X124.5Y-139.0
X124.5Y-140.2
X124.5Y-141.4
X124.5Y-142.6
X124.5Y-143.8
X124.58Y-64.149
X124.95Y-133.9
X124.95Y-135.1
X125.15Y-129.982
X125.151Y-106.413
X125.299Y-59.165
X125.7Y-137.8
X125.7Y-139.0
X125.7Y-140.2
X125.7Y-141.4
X125.7Y-142.6
X125.7Y-143.8
X125.728Y-114.635
X125.732Y-52.203
X125.79Y-74.072
X125.8Y-130.484
X125.85Y-133.9
X125.85Y-135.1
X126.566Y-76.674
X126.581Y-95.984
X126.585Y-100.996
X126.589Y-102.266
X126.662Y-65.101
X126.725Y-98.324
X126.777Y-110.394
X126.816Y-70.717
X126.9Y-137.8
X126.9Y-141.4
X126.9Y-142.6
X126.9Y-143.8
X126.95Y-157.95
X127.222Y-130.878
X127.687Y-112.526
X128.534Y-117.021
X128.609Y-115.632
X128.648Y-73.741
X128.724Y-77.353
X128.774Y-98.324
X128.895Y-69.228
X129.534Y-105.564
X129.637Y-79.47
X129.95Y-52.95
X129.95Y-61.95
X129.95Y-64.95
X129.95Y-67.95
X129.95Y-136.95
X129.95Y-139.95
X129.95Y-142.95
X129.95Y-145.95
X129.95Y-148.95
X129.95Y-157.95
X130.328Y-115.525
X130.51Y-75.887
X130.911Y-66.073
X130.923Y-143.754
X130.951Y-108.42
X131.024Y-94.511
X131.089Y-103.75
X131.16Y-78.161
X131.539Y-97.254
X131.617Y-54.369
X131.699Y-102.041
X131.979Y-62.292
X132.206Y-115.542
X132.95Y-136.95
X132.95Y-139.95
X132.95Y-142.95
X132.95Y-145.95
X132.95Y-148.95
X132.95Y-157.95
X133.585Y-96.83
X134.47Y-53.614
X134.579Y-106.061
X135.485Y-94.288
X135.829Y-115.527
X135.831Y-122.109
X135.95Y-76.95
X135.95Y-79.95
X135.95Y-82.95
X135.95Y-85.95
X135.95Y-88.95
X135.95Y-91.95
X135.95Y-136.95
X135.95Y-145.95
X135.95Y-148.95
X135.95Y-157.95
X136.249Y-71.311
X136.364Y-106.038
X137.1Y-137.8
X137.1Y-141.4
X137.1Y-142.6
X137.1Y-143.8
X137.424Y-53.745
X137.778Y-105.483
X137.885Y-112.566
X138.15Y-133.9
X138.15Y-135.1
X138.3Y-137.8
X138.3Y-139.0
X138.3Y-140.2
X138.3Y-141.4
X138.3Y-142.6
X138.3Y-143.8
X138.663Y-118.908
X138.788Y-117.026
X138.95Y-55.95
X138.95Y-58.95
X138.95Y-61.95
X138.95Y-64.95
X138.95Y-67.95
X138.95Y-76.95
X138.95Y-82.95
X138.95Y-85.95
X138.95Y-88.95
X138.95Y-91.95
X138.95Y-94.95
X139.05Y-133.9
X139.05Y-135.1
X139.137Y-70.477
X139.5Y-129.449
X139.5Y-139.0
X139.5Y-140.2
X139.5Y-141.4
X139.5Y-142.6
X139.5Y-143.8
X139.95Y-133.9
X139.95Y-135.1
X140.15Y-129.937
X140.592Y-115.54
X140.7Y-137.8
X140.7Y-139.0
X140.7Y-140.2
X140.7Y-141.4
X140.7Y-142.6
X140.7Y-143.8
X140.766Y-130.492
X140.85Y-133.9
X140.85Y-135.1
X141.555Y-114.635
X141.735Y-130.45
X141.777Y-110.394
X141.9Y-137.8
X141.9Y-141.4
X141.9Y-142.6
X141.9Y-143.8
X141.95Y-52.95
X141.95Y-55.95
X141.95Y-58.95
X141.95Y-61.95
X141.95Y-64.95
X141.95Y-67.95
X141.95Y-76.95
X141.95Y-79.95
X141.95Y-91.95
X141.95Y-94.95
X143.541Y-117.028
X143.705Y-85.727
X143.717Y-89.03
X143.741Y-87.228
X144.025Y-110.068
X144.64Y-71.182
X144.754Y-76.334
X144.762Y-73.125
X144.931Y-81.745
X144.95Y-67.95
X144.95Y-82.95
X144.95Y-91.95
X144.95Y-94.95
X144.95Y-136.95
X144.95Y-142.95
X144.95Y-145.95
X144.95Y-148.95
X144.95Y-157.95
X145.243Y-73.794
X145.296Y-69.983
X145.737Y-108.42
X145.737Y-143.754
X146.129Y-73.537
X146.133Y-113.959
X146.191Y-80.795
X146.288Y-72.101
X146.499Y-107.138
X146.736Y-74.067
X147.465Y-105.057
X147.95Y-67.95
X147.95Y-82.95
X147.95Y-88.95
X147.95Y-91.95
X147.95Y-145.95
X147.95Y-148.95
X147.95Y-157.95
X149.015Y-113.734
X149.543Y-71.254
X149.626Y-87.21
X149.662Y-69.784
X149.713Y-76.681
X149.714Y-75.192
X150.429Y-79.715
X150.831Y-122.109
X150.846Y-115.543
X150.95Y-67.95
X150.95Y-88.95
X150.95Y-91.95
X150.95Y-94.95
X150.95Y-136.95
X150.95Y-148.95
X150.95Y-157.95
X151.651Y-103.846
X151.85Y-118.938
X151.94Y-57.348
X152.065Y-115.636
X152.1Y-137.8
X152.1Y-141.4
X152.1Y-142.6
X152.1Y-143.8
X153.15Y-133.9
X153.15Y-135.1
X153.209Y-85.744
X153.295Y-83.431
X153.3Y-137.8
X153.3Y-139.0
X153.3Y-140.2
X153.3Y-141.4
X153.3Y-142.6
X153.3Y-143.8
X153.95Y-67.95
X153.95Y-76.95
X153.95Y-88.95
X153.95Y-91.95
X154.05Y-133.9
X154.05Y-135.1
X154.298Y-130.497
X154.402Y-105.48
X154.5Y-139.0
X154.5Y-140.2
X154.5Y-141.4
X154.5Y-142.6
X154.5Y-143.8
X154.688Y-113.414
X154.95Y-133.9
X154.95Y-135.1
X155.15Y-129.968
X155.213Y-149.097
X155.7Y-137.8
X155.7Y-139.0
X155.7Y-140.2
X155.7Y-141.4
X155.7Y-142.6
X155.7Y-143.8
X155.8Y-130.486
X155.85Y-133.9
X155.85Y-135.1
X156.074Y-94.511
X156.083Y-103.749
X156.641Y-115.608
X156.728Y-98.324
X156.753Y-96.889
X156.777Y-110.392
X156.9Y-137.8
X156.9Y-141.4
X156.9Y-142.6
X156.9Y-143.8
X156.95Y-67.95
X156.95Y-82.95
X156.95Y-88.95
X156.95Y-91.95
X156.95Y-157.95
X156.991Y-104.055
X157.189Y-130.911
X158.133Y-109.919
X158.725Y-101.665
X158.739Y-97.855
X158.83Y-99.638
X158.887Y-86.045
X158.909Y-95.984
X159.103Y-80.985
X159.95Y-67.95
X159.95Y-73.95
X159.95Y-76.95
X159.95Y-88.95
X159.95Y-91.95
X159.95Y-136.95
X159.95Y-139.95
X159.95Y-142.95
X159.95Y-145.95
X159.95Y-157.95
X160.235Y-118.906
X160.331Y-115.529
X160.523Y-108.42
X161.12Y-152.2
X161.267Y-139.445
X161.4Y-107.43
X161.637Y-97.209
X161.814Y-86.047
X162.084Y-114.635
X162.166Y-122.161
X162.525Y-105.481
X162.95Y-67.95
X162.95Y-136.95
X162.95Y-139.95
X162.95Y-142.95
X162.95Y-145.95
X163.208Y-78.837
X163.528Y-115.86
X163.585Y-96.812
X163.637Y-83.625
X164.043Y-110.041
X164.047Y-120.324
X165.485Y-94.215
X165.95Y-67.95
X165.95Y-88.95
X165.95Y-136.95
X165.95Y-145.95
X166.4Y-117.234
X166.822Y-114.635
X166.934Y-110.445
X167.1Y-137.8
X167.1Y-141.4
X167.1Y-142.6
X167.1Y-143.8
X167.237Y-70.245
X167.485Y-83.932
X167.777Y-105.484
X168.15Y-133.9
X168.15Y-135.1
X168.3Y-137.8
X168.3Y-139.0
X168.3Y-140.2
X168.3Y-141.4
X168.3Y-142.6
X168.3Y-143.8
X168.794Y-117.031
X168.95Y-67.95
X168.95Y-73.95
X168.95Y-88.95
X168.95Y-91.95
X169.05Y-133.9
X169.05Y-135.1
X169.5Y-130.474
X169.5Y-139.0
X169.5Y-140.2
X169.5Y-141.4
X169.5Y-142.6
X169.5Y-143.8
X169.858Y-81.864
X169.95Y-133.9
X169.95Y-135.1
X170.355Y-130.489
X170.359Y-115.784
X170.7Y-137.8
X170.7Y-139.0
X170.7Y-140.2
X170.7Y-141.4
X170.7Y-142.6
X170.7Y-143.8
X170.85Y-133.9
X170.85Y-135.1
X171.236Y-130.478
X171.312Y-86.065
X171.532Y-80.996
X171.64Y-115.607
X171.9Y-137.8
X171.9Y-141.4
X171.9Y-142.6
X171.9Y-143.8
X171.95Y-67.95
X171.95Y-76.95
X171.95Y-88.95
X171.95Y-91.95
X171.95Y-160.95
X172.197Y-130.903
X172.498Y-70.245
X173.104Y-109.884
X173.137Y-83.614
X173.51Y-113.708
X174.061Y-148.623
X174.495Y-150.397
X174.639Y-81.389
X174.95Y-67.95
X174.95Y-79.95
X174.95Y-91.95
X174.95Y-97.95
X174.95Y-160.95
X175.115Y-60.328
X175.307Y-108.419
X175.309Y-120.067
X175.34Y-117.022
X175.375Y-69.295
X175.669Y-140.774
X176.39Y-107.42
X176.985Y-83.932
X177.75Y-70.245
X177.95Y-67.95
X177.95Y-73.95
X177.95Y-76.95
X177.95Y-82.95
X177.95Y-160.95
X178.082Y-107.245
X178.128Y-146.733
X178.181Y-79.138
X179.016Y-113.731
X179.148Y-105.484
X180.84Y-115.538
X180.95Y-67.95
X180.95Y-136.95
X180.95Y-145.95
X181.13Y-120.548
X181.472Y-106.777
X182.1Y-137.8
X182.1Y-141.4
X182.1Y-142.6
X182.1Y-143.8
X182.257Y-107.379
X182.778Y-105.483
X183.15Y-133.9
X183.15Y-135.1
X183.3Y-137.8
X183.3Y-139.0
X183.3Y-140.2
X183.3Y-141.4
X183.3Y-142.6
X183.3Y-143.8
X183.815Y-117.011
X183.95Y-52.95
X183.95Y-58.95
X183.95Y-61.95
X183.95Y-73.95
X183.95Y-76.95
X183.95Y-79.95
X183.95Y-82.95
X183.95Y-85.95
X183.95Y-88.95
X183.95Y-91.95
X183.968Y-97.254
X184.05Y-133.9
X184.05Y-135.1
X184.5Y-139.0
X184.5Y-140.2
X184.5Y-141.4
X184.5Y-142.6
X184.5Y-143.8
X184.668Y-103.749
X184.95Y-133.9
X184.95Y-135.1
X185.15Y-129.989
X185.7Y-137.8
X185.7Y-139.0
X185.7Y-140.2
X185.7Y-141.4
X185.7Y-142.6
X185.7Y-143.8
X185.79Y-111.285
X185.8Y-130.476
X185.85Y-133.9
X185.85Y-135.1
X186.329Y-117.219
X186.51Y-116.258
X186.744Y-97.386
X186.873Y-100.996
X186.9Y-137.8
X186.9Y-141.4
X186.9Y-142.6
X186.9Y-143.8
X186.95Y-52.95
X186.95Y-58.95
X186.95Y-73.95
X186.95Y-76.95
X186.95Y-79.95
X186.95Y-82.95
X186.95Y-85.95
X186.95Y-88.95
X186.95Y-91.95
X187.137Y-130.682
X187.787Y-70.033
X187.879Y-99.125
X188.258Y-65.388
X188.302Y-57.348
X188.57Y-115.593
X188.595Y-107.948
X188.785Y-98.324
X188.904Y-100.996
X188.91Y-102.266
X189.638Y-105.504
X189.95Y-52.95
X189.95Y-58.95
X189.95Y-73.95
X189.95Y-76.95
X189.95Y-79.95
X189.95Y-82.95
X189.95Y-85.95
X189.95Y-88.95
X189.95Y-91.95
X189.95Y-136.95
X189.95Y-139.95
X189.95Y-145.95
X189.95Y-157.95
X190.48Y-114.744
X190.562Y-140.774
X191.328Y-112.749
X191.517Y-95.984
X191.697Y-94.617
X192.179Y-120.282
X192.95Y-52.95
X192.95Y-55.95
X192.95Y-58.95
X192.95Y-61.95
X192.95Y-67.95
X192.95Y-73.95
X192.95Y-76.95
X192.95Y-79.95
X192.95Y-82.95
X192.95Y-85.95
X192.95Y-88.95
X192.95Y-91.95
X192.95Y-103.95
X192.95Y-136.95
X192.95Y-142.95
X192.95Y-145.95
X192.95Y-148.95
X193.935Y-65.41
X194.148Y-105.484
X195.835Y-120.318
X195.844Y-118.831
X195.95Y-55.95
X195.95Y-61.95
X195.95Y-64.95
X195.95Y-91.95
X195.95Y-94.95
X195.95Y-97.95
X195.95Y-145.95
X195.95Y-148.95
X195.967Y-54.369
X196.009Y-69.796
X196.477Y-116.897
X196.499Y-96.082
X196.789Y-87.143
X196.949Y-116.192
X197.1Y-137.8
X197.1Y-141.4
X197.1Y-142.6
X197.1Y-143.8
X197.185Y-59.225
X197.293Y-110.046
X197.333Y-106.295
X198.15Y-133.9
X198.15Y-135.1
X198.3Y-137.8
X198.3Y-139.0
X198.3Y-140.2
X198.3Y-141.4
X198.3Y-142.6
X198.3Y-143.8
X198.627Y-107.245
X198.79Y-117.027
X198.95Y-52.95
X198.95Y-55.95
X198.95Y-58.95
X198.95Y-61.95
X198.95Y-64.95
X198.95Y-73.95
X198.95Y-76.95
X198.95Y-79.95
X198.95Y-82.95
X198.95Y-85.95
X198.95Y-91.95
X198.95Y-94.95
X198.95Y-97.95
X198.95Y-100.95
X198.95Y-157.95
X199.05Y-133.9
X199.05Y-135.1
X199.5Y-130.484
X199.5Y-139.0
X199.5Y-140.2
X199.5Y-141.4
X199.5Y-142.6
X199.5Y-143.8
X199.95Y-133.9
X199.95Y-135.1
X200.15Y-129.999
X200.325Y-69.845
X200.672Y-116.281
X200.7Y-137.8
X200.7Y-139.0
X200.7Y-140.2
X200.7Y-141.4
X200.7Y-142.6
X200.7Y-143.8
X200.8Y-130.489
X200.85Y-133.9
X200.85Y-135.1
X201.027Y-67.309
X201.219Y-115.68
X201.77Y-110.387
X201.888Y-57.242
X201.9Y-137.8
X201.9Y-141.4
X201.9Y-142.6
X201.9Y-143.8
X201.95Y-52.95
X201.95Y-55.95
X201.95Y-58.95
X201.95Y-70.95
X201.95Y-73.95
X201.95Y-76.95
X201.95Y-79.95
X201.95Y-82.95
X201.95Y-85.95
X201.95Y-88.95
X201.95Y-94.95
X201.95Y-97.95
X201.95Y-100.95
X201.95Y-157.95
X202.205Y-130.895
X202.85Y-107.823
X203.512Y-115.56
X203.579Y-113.668
X203.969Y-64.185
X204.771Y-65.9
X204.95Y-52.95
X204.95Y-58.95
X204.95Y-70.95
X204.95Y-73.95
X204.95Y-76.95
X204.95Y-79.95
X204.95Y-82.95
X204.95Y-85.95
X204.95Y-88.95
X204.95Y-91.95
X204.95Y-97.95
X204.95Y-100.95
X204.95Y-136.95
X204.95Y-139.95
X204.95Y-142.95
X204.95Y-145.95
X204.95Y-148.95
X204.95Y-151.95
X204.95Y-154.95
X204.95Y-157.95
X205.378Y-141.368
X205.959Y-55.669
X206.119Y-67.609
X206.169Y-107.743
X207.097Y-114.635
X207.524Y-105.481
X207.95Y-58.95
X207.95Y-61.95
X207.95Y-136.95
X207.95Y-139.95
X207.95Y-142.95
X207.95Y-145.95
X207.95Y-148.95
X207.95Y-151.95
X207.95Y-154.95
X207.95Y-157.95
X208.892Y-68.224
X210.732Y-119.055
X210.841Y-120.311
X210.889Y-115.495
X210.95Y-52.95
X210.95Y-55.95
X210.95Y-58.95
X210.95Y-61.95
X210.95Y-64.95
X210.95Y-70.95
X210.95Y-73.95
X210.95Y-76.95
X210.95Y-79.95
X210.95Y-82.95
X210.95Y-85.95
X210.95Y-88.95
X210.95Y-91.95
X210.95Y-94.95
X210.95Y-97.95
X210.95Y-100.95
X210.95Y-136.95
X210.95Y-145.95
X210.95Y-148.95
X210.95Y-151.95
X210.95Y-154.95
X210.95Y-157.95
X211.4Y-117.185
X211.925Y-55.978
X211.971Y-112.229
X212.1Y-137.8
X212.1Y-141.4
X212.1Y-142.6
X212.1Y-143.8
X212.621Y-110.046
X212.696Y-69.423
X212.777Y-105.484
X213.15Y-133.9
X213.15Y-135.1
X213.3Y-137.8
X213.3Y-139.0
X213.3Y-140.2
X213.3Y-141.4
X213.3Y-142.6
X213.3Y-143.8
X213.627Y-107.245
X213.783Y-117.021
X213.95Y-52.95
X213.95Y-55.95
X213.95Y-58.95
X213.95Y-61.95
X213.95Y-64.95
X213.95Y-67.95
X213.95Y-70.95
X213.95Y-73.95
X213.95Y-76.95
X213.95Y-79.95
X213.95Y-82.95
X213.95Y-85.95
X213.95Y-88.95
X213.95Y-91.95
X213.95Y-94.95
X213.95Y-97.95
X213.95Y-100.95
X213.95Y-103.95
X214.05Y-133.9
X214.05Y-135.1
X214.2Y-105.485
X214.5Y-130.498
X214.5Y-139.0
X214.5Y-140.2
X214.5Y-141.4
X214.5Y-142.6
X214.5Y-143.8
X214.95Y-133.9
X214.95Y-135.1
X215.387Y-130.492
X215.7Y-137.8
X215.7Y-139.0
X215.7Y-140.2
X215.7Y-141.4
X215.7Y-142.6
X215.7Y-143.8
X215.705Y-114.635
X215.85Y-133.9
X215.85Y-135.1
X216.599Y-130.482
X216.787Y-110.404
X216.9Y-137.8
X216.9Y-141.4
X216.9Y-142.6
X216.9Y-143.8
X216.95Y-52.95
X216.95Y-55.95
X216.95Y-58.95
X216.95Y-61.95
X216.95Y-64.95
X216.95Y-67.95
X216.95Y-70.95
X216.95Y-73.95
X216.95Y-76.95
X216.95Y-79.95
X216.95Y-82.95
X216.95Y-85.95
X216.95Y-88.95
X216.95Y-91.95
X216.95Y-94.95
X216.95Y-97.95
X216.95Y-100.95
X216.95Y-103.95
X217.197Y-132.328
X217.574Y-107.546
X218.492Y-115.556
X218.54Y-113.708
X219.588Y-107.432
X219.95Y-55.95
X219.95Y-58.95
X219.95Y-61.95
X219.95Y-64.95
X219.95Y-67.95
X219.95Y-70.95
X219.95Y-73.95
X219.95Y-76.95
X219.95Y-79.95
X219.95Y-82.95
X219.95Y-85.95
X219.95Y-88.95
X219.95Y-91.95
X219.95Y-94.95
X219.95Y-97.95
X219.95Y-100.95
X219.95Y-103.95
X219.95Y-136.95
X219.95Y-139.95
X219.95Y-142.95
X219.95Y-145.95
X219.95Y-148.95
X219.95Y-151.95
X219.95Y-154.95
X219.95Y-157.95
X222.368Y-140.774
T2
X157.2Y-59.5
X158.606Y-56.106
X158.606Y-62.894
X162.0Y-54.7
X162.0Y-64.3
X165.394Y-56.106
X165.394Y-62.894
X166.8Y-59.5
T3
X152.605Y-70.315
X152.605Y-72.855
X152.605Y-75.395
X157.535Y-70.315
X157.535Y-72.855
X157.535Y-75.395
X162.465Y-70.315
X162.465Y-72.855
X162.465Y-75.395
T4
X162.02Y-150.1
X162.02Y-154.3
X162.02Y-158.5
X166.17Y-150.1
X166.17Y-154.3
X166.17Y-158.5
X169.5Y-150.1
X169.5Y-154.3
X169.5Y-158.5
X172.83Y-150.1
X172.83Y-154.3
X172.83Y-158.5
X176.16Y-150.1
X176.16Y-154.3
X176.16Y-158.5
X179.49Y-150.1
X179.49Y-154.3
X179.49Y-158.5
X182.82Y-150.1
X182.82Y-154.3
X182.82Y-158.5
X186.97Y-150.1
X186.97Y-154.3
X186.97Y-158.5
T5
X162.0Y-59.5
M30
