%TF.GenerationSoftware,KiCad,Pcbnew,10.0.6*%
%TF.CreationDate,2026-09-24T20:47:42+00:00*%
%TF.ProjectId,PDM,50444d2e-6b69-4636-9164-5f7063625858,rev?*%
%TF.SameCoordinates,Original*%
%TF.FileFunction,Soldermask,Top*%
%TF.FilePolarity,Negative*%
%FSLAX46Y46*%
G04 Gerber Fmt 4.6, Leading zero omitted, Abs format (unit mm)*
G04 Created by KiCad (PCBNEW 10.0.6) date 2026-09-24 20:47:42*
%MOMM*%
%LPD*%
G01*
G04 APERTURE LIST*
G04 Aperture macros list*
%AMRoundRect*
0 Rectangle with rounded corners*
0 $1 Rounding radius*
0 $2 $3 $4 $5 $6 $7 $8 $9 X,Y pos of 4 corners*
0 Add a 4 corners polygon primitive as box body*
4,1,4,$2,$3,$4,$5,$6,$7,$8,$9,$2,$3,0*
0 Add four circle primitives for the rounded corners*
1,1,$1+$1,$2,$3*
1,1,$1+$1,$4,$5*
1,1,$1+$1,$6,$7*
1,1,$1+$1,$8,$9*
0 Add four rect primitives between the rounded corners*
20,1,$1+$1,$2,$3,$4,$5,0*
20,1,$1+$1,$4,$5,$6,$7,0*
20,1,$1+$1,$6,$7,$8,$9,0*
20,1,$1+$1,$8,$9,$2,$3,0*%
G04 Aperture macros list end*
%ADD10RoundRect,0.250000X-0.312500X-0.625000X0.312500X-0.625000X0.312500X0.625000X-0.312500X0.625000X0*%
%ADD11RoundRect,0.250000X-0.262500X-0.450000X0.262500X-0.450000X0.262500X0.450000X-0.262500X0.450000X0*%
%ADD12R,0.450000X1.310000*%
%ADD13R,4.000000X2.650000*%
%ADD14RoundRect,0.250000X-0.312500X-1.450000X0.312500X-1.450000X0.312500X1.450000X-0.312500X1.450000X0*%
%ADD15RoundRect,0.250000X-1.000000X-0.650000X1.000000X-0.650000X1.000000X0.650000X-1.000000X0.650000X0*%
%ADD16RoundRect,0.150000X-0.825000X-0.150000X0.825000X-0.150000X0.825000X0.150000X-0.825000X0.150000X0*%
%ADD17C,0.900000*%
%ADD18C,12.800000*%
%ADD19RoundRect,0.250000X-0.250000X-0.475000X0.250000X-0.475000X0.250000X0.475000X-0.250000X0.475000X0*%
%ADD20RoundRect,0.243750X-0.243750X-0.456250X0.243750X-0.456250X0.243750X0.456250X-0.243750X0.456250X0*%
%ADD21O,2.200000X5.000000*%
%ADD22O,2.200000X3.500000*%
%ADD23R,2.800000X2.800000*%
%ADD24C,2.250000*%
%ADD25C,2.800000*%
%ADD26RoundRect,0.150000X-0.587500X-0.150000X0.587500X-0.150000X0.587500X0.150000X-0.587500X0.150000X0*%
%ADD27RoundRect,0.250000X-1.500000X-1.000000X1.500000X-1.000000X1.500000X1.000000X-1.500000X1.000000X0*%
%ADD28RoundRect,0.375000X-0.625000X-0.375000X0.625000X-0.375000X0.625000X0.375000X-0.625000X0.375000X0*%
%ADD29RoundRect,0.500000X-0.500000X-1.400000X0.500000X-1.400000X0.500000X1.400000X-0.500000X1.400000X0*%
%ADD30RoundRect,0.250000X0.262500X0.450000X-0.262500X0.450000X-0.262500X-0.450000X0.262500X-0.450000X0*%
%ADD31RoundRect,0.250000X-1.000000X-0.900000X1.000000X-0.900000X1.000000X0.900000X-1.000000X0.900000X0*%
%ADD32RoundRect,0.250000X-0.420000X-0.945000X0.420000X-0.945000X0.420000X0.945000X-0.420000X0.945000X0*%
%ADD33C,3.200000*%
%ADD34R,1.700000X1.700000*%
%ADD35C,1.700000*%
%ADD36RoundRect,0.250000X1.400000X1.000000X-1.400000X1.000000X-1.400000X-1.000000X1.400000X-1.000000X0*%
G04 APERTURE END LIST*
D10*
%TO.C,R96*%
X184862500Y-68655000D03*
X187787500Y-68655000D03*
%TD*%
D11*
%TO.C,R34*%
X187612500Y-114635000D03*
X189437500Y-114635000D03*
%TD*%
%TO.C,R58*%
X157612500Y-114635000D03*
X159437500Y-114635000D03*
%TD*%
D12*
%TO.C,U14*%
X126450000Y-131650000D03*
X125800000Y-131650000D03*
X125150000Y-131650000D03*
X124500000Y-131655000D03*
X123850000Y-131650000D03*
X123200000Y-131650000D03*
X122550000Y-131650000D03*
X122550000Y-137350000D03*
X123200000Y-137350000D03*
X123850000Y-137350000D03*
X124500000Y-137350000D03*
X125150000Y-137350000D03*
X125800000Y-137350000D03*
X126450000Y-137350000D03*
D13*
X124500000Y-134500000D03*
%TD*%
D14*
%TO.C,F1*%
X201637500Y-64185000D03*
X205912500Y-64185000D03*
%TD*%
D15*
%TO.C,D45*%
X193935000Y-63985000D03*
X197935000Y-63985000D03*
%TD*%
D16*
%TO.C,U6*%
X155270000Y-95315000D03*
X155270000Y-96585000D03*
X155270000Y-97855000D03*
X155270000Y-99125000D03*
X155270000Y-100395000D03*
X155270000Y-101665000D03*
X155270000Y-102935000D03*
X160220000Y-102935000D03*
X160220000Y-101665000D03*
X160220000Y-100395000D03*
X160220000Y-99125000D03*
X160220000Y-97855000D03*
X160220000Y-96585000D03*
X160220000Y-95315000D03*
%TD*%
D11*
%TO.C,R90*%
X172612500Y-114635000D03*
X174437500Y-114635000D03*
%TD*%
%TO.C,R92*%
X167862500Y-117925000D03*
X169687500Y-117925000D03*
%TD*%
D17*
%TO.C,J2*%
X157200000Y-59500000D03*
X158605887Y-56105887D03*
X158605887Y-62894113D03*
X162000000Y-54700000D03*
D18*
X162000000Y-59500000D03*
D17*
X162000000Y-64300000D03*
X165394113Y-56105887D03*
X165394113Y-62894113D03*
X166800000Y-59500000D03*
%TD*%
D19*
%TO.C,C27*%
X133585000Y-95525000D03*
X135485000Y-95525000D03*
%TD*%
D20*
%TO.C,D26*%
X157667500Y-111285000D03*
X159542500Y-111285000D03*
%TD*%
D19*
%TO.C,C26*%
X163585000Y-95525000D03*
X165485000Y-95525000D03*
%TD*%
D11*
%TO.C,R10*%
X177262500Y-80045000D03*
X179087500Y-80045000D03*
%TD*%
D12*
%TO.C,U17*%
X171450000Y-131650000D03*
X170800000Y-131650000D03*
X170150000Y-131650000D03*
X169500000Y-131655000D03*
X168850000Y-131650000D03*
X168200000Y-131650000D03*
X167550000Y-131650000D03*
X167550000Y-137350000D03*
X168200000Y-137350000D03*
X168850000Y-137350000D03*
X169500000Y-137350000D03*
X170150000Y-137350000D03*
X170800000Y-137350000D03*
X171450000Y-137350000D03*
D13*
X169500000Y-134500000D03*
%TD*%
D11*
%TO.C,R38*%
X187612500Y-117925000D03*
X189437500Y-117925000D03*
%TD*%
D19*
%TO.C,C15*%
X162875000Y-80075000D03*
X164775000Y-80075000D03*
%TD*%
D11*
%TO.C,R72*%
X133112500Y-114635000D03*
X134937500Y-114635000D03*
%TD*%
%TO.C,R32*%
X178112500Y-114635000D03*
X179937500Y-114635000D03*
%TD*%
D19*
%TO.C,C39*%
X208095000Y-111315000D03*
X209995000Y-111315000D03*
%TD*%
D16*
%TO.C,U8*%
X102770000Y-95315000D03*
X102770000Y-96585000D03*
X102770000Y-97855000D03*
X102770000Y-99125000D03*
X102770000Y-100395000D03*
X102770000Y-101665000D03*
X102770000Y-102935000D03*
X107720000Y-102935000D03*
X107720000Y-101665000D03*
X107720000Y-100395000D03*
X107720000Y-99125000D03*
X107720000Y-97855000D03*
X107720000Y-96585000D03*
X107720000Y-95315000D03*
%TD*%
D19*
%TO.C,C25*%
X193585000Y-95525000D03*
X195485000Y-95525000D03*
%TD*%
D21*
%TO.C,J1*%
X154195000Y-156400000D03*
D22*
X194795000Y-157150000D03*
D23*
X186970000Y-150100000D03*
D24*
X182820000Y-150100000D03*
X179490000Y-150100000D03*
X176160000Y-150100000D03*
X172830000Y-150100000D03*
X169500000Y-150100000D03*
X166170000Y-150100000D03*
D25*
X162020000Y-150100000D03*
X186970000Y-154300000D03*
D24*
X182820000Y-154300000D03*
X179490000Y-154300000D03*
X176160000Y-154300000D03*
X172830000Y-154300000D03*
X169500000Y-154300000D03*
X166170000Y-154300000D03*
D25*
X162020000Y-154300000D03*
X186970000Y-158500000D03*
D24*
X182820000Y-158500000D03*
X179490000Y-158500000D03*
X176160000Y-158500000D03*
X172830000Y-158500000D03*
X169500000Y-158500000D03*
X166170000Y-158500000D03*
D25*
X162020000Y-158500000D03*
%TD*%
D19*
%TO.C,C14*%
X158085000Y-80075000D03*
X159985000Y-80075000D03*
%TD*%
%TO.C,C40*%
X217050000Y-139800000D03*
X218950000Y-139800000D03*
%TD*%
%TO.C,C61*%
X167885000Y-111315000D03*
X169785000Y-111315000D03*
%TD*%
%TO.C,C45*%
X152885000Y-111315000D03*
X154785000Y-111315000D03*
%TD*%
D20*
%TO.C,D14*%
X187667500Y-111285000D03*
X189542500Y-111285000D03*
%TD*%
D11*
%TO.C,R66*%
X127612500Y-114635000D03*
X129437500Y-114635000D03*
%TD*%
%TO.C,R83*%
X103112500Y-117925000D03*
X104937500Y-117925000D03*
%TD*%
D26*
%TO.C,D36*%
X138587500Y-106295000D03*
X138587500Y-108195000D03*
X140462500Y-107245000D03*
%TD*%
D19*
%TO.C,C38*%
X218595000Y-106525000D03*
X220495000Y-106525000D03*
%TD*%
D11*
%TO.C,R44*%
X197862500Y-117925000D03*
X199687500Y-117925000D03*
%TD*%
D20*
%TO.C,D34*%
X142667500Y-111285000D03*
X144542500Y-111285000D03*
%TD*%
D11*
%TO.C,R67*%
X118112500Y-117925000D03*
X119937500Y-117925000D03*
%TD*%
%TO.C,R70*%
X127612500Y-117925000D03*
X129437500Y-117925000D03*
%TD*%
D26*
%TO.C,D6*%
X177117500Y-69295000D03*
X177117500Y-71195000D03*
X178992500Y-70245000D03*
%TD*%
D11*
%TO.C,R17*%
X127812500Y-71685000D03*
X129637500Y-71685000D03*
%TD*%
D27*
%TO.C,C1*%
X171750000Y-59500000D03*
X178250000Y-59500000D03*
%TD*%
D16*
%TO.C,U7*%
X125270000Y-95315000D03*
X125270000Y-96585000D03*
X125270000Y-97855000D03*
X125270000Y-99125000D03*
X125270000Y-100395000D03*
X125270000Y-101665000D03*
X125270000Y-102935000D03*
X130220000Y-102935000D03*
X130220000Y-101665000D03*
X130220000Y-100395000D03*
X130220000Y-99125000D03*
X130220000Y-97855000D03*
X130220000Y-96585000D03*
X130220000Y-95315000D03*
%TD*%
D12*
%TO.C,U16*%
X111450000Y-131650000D03*
X110800000Y-131650000D03*
X110150000Y-131650000D03*
X109500000Y-131655000D03*
X108850000Y-131650000D03*
X108200000Y-131650000D03*
X107550000Y-131650000D03*
X107550000Y-137350000D03*
X108200000Y-137350000D03*
X108850000Y-137350000D03*
X109500000Y-137350000D03*
X110150000Y-137350000D03*
X110800000Y-137350000D03*
X111450000Y-137350000D03*
D13*
X109500000Y-134500000D03*
%TD*%
D11*
%TO.C,R4*%
X157062500Y-84835000D03*
X158887500Y-84835000D03*
%TD*%
D28*
%TO.C,Q2*%
X126875000Y-53345000D03*
X126875000Y-55645000D03*
D29*
X133175000Y-55645000D03*
D28*
X126875000Y-57945000D03*
%TD*%
D19*
%TO.C,C36*%
X202050000Y-139800000D03*
X203950000Y-139800000D03*
%TD*%
D11*
%TO.C,R73*%
X137862500Y-114635000D03*
X139687500Y-114635000D03*
%TD*%
%TO.C,R79*%
X133112500Y-121215000D03*
X134937500Y-121215000D03*
%TD*%
D19*
%TO.C,C35*%
X193095000Y-111315000D03*
X194995000Y-111315000D03*
%TD*%
D11*
%TO.C,R6*%
X166562500Y-84835000D03*
X168387500Y-84835000D03*
%TD*%
%TO.C,R87*%
X103112500Y-121215000D03*
X104937500Y-121215000D03*
%TD*%
%TO.C,R76*%
X137862500Y-117925000D03*
X139687500Y-117925000D03*
%TD*%
D26*
%TO.C,D15*%
X178337500Y-106295000D03*
X178337500Y-108195000D03*
X180212500Y-107245000D03*
%TD*%
%TO.C,D35*%
X133337500Y-106295000D03*
X133337500Y-108195000D03*
X135212500Y-107245000D03*
%TD*%
D20*
%TO.C,D18*%
X202667500Y-111285000D03*
X204542500Y-111285000D03*
%TD*%
D11*
%TO.C,R47*%
X193112500Y-121215000D03*
X194937500Y-121215000D03*
%TD*%
D30*
%TO.C,R37*%
X181912500Y-139800000D03*
X180087500Y-139800000D03*
%TD*%
D19*
%TO.C,C32*%
X187050000Y-139800000D03*
X188950000Y-139800000D03*
%TD*%
D11*
%TO.C,R57*%
X152862500Y-114635000D03*
X154687500Y-114635000D03*
%TD*%
D19*
%TO.C,C31*%
X178095000Y-111315000D03*
X179995000Y-111315000D03*
%TD*%
%TO.C,C22*%
X118375000Y-68365000D03*
X120275000Y-68365000D03*
%TD*%
D16*
%TO.C,U3*%
X143270000Y-69315000D03*
X143270000Y-70585000D03*
X143270000Y-71855000D03*
X143270000Y-73125000D03*
X143270000Y-74395000D03*
X143270000Y-75665000D03*
X143270000Y-76935000D03*
X148220000Y-76935000D03*
X148220000Y-75665000D03*
X148220000Y-74395000D03*
X148220000Y-73125000D03*
X148220000Y-71855000D03*
X148220000Y-70585000D03*
X148220000Y-69315000D03*
%TD*%
D11*
%TO.C,R84*%
X107862500Y-117925000D03*
X109687500Y-117925000D03*
%TD*%
%TO.C,R56*%
X148112500Y-114635000D03*
X149937500Y-114635000D03*
%TD*%
D20*
%TO.C,D38*%
X112667500Y-111285000D03*
X114542500Y-111285000D03*
%TD*%
D19*
%TO.C,C43*%
X148095000Y-111315000D03*
X149995000Y-111315000D03*
%TD*%
D20*
%TO.C,D13*%
X177962500Y-142000000D03*
X179837500Y-142000000D03*
%TD*%
D30*
%TO.C,R93*%
X166912500Y-139800000D03*
X165087500Y-139800000D03*
%TD*%
D11*
%TO.C,R54*%
X217612500Y-117925000D03*
X219437500Y-117925000D03*
%TD*%
%TO.C,R52*%
X212862500Y-117925000D03*
X214687500Y-117925000D03*
%TD*%
D12*
%TO.C,U12*%
X216450000Y-131650000D03*
X215800000Y-131650000D03*
X215150000Y-131650000D03*
X214500000Y-131655000D03*
X213850000Y-131650000D03*
X213200000Y-131650000D03*
X212550000Y-131650000D03*
X212550000Y-137350000D03*
X213200000Y-137350000D03*
X213850000Y-137350000D03*
X214500000Y-137350000D03*
X215150000Y-137350000D03*
X215800000Y-137350000D03*
X216450000Y-137350000D03*
D13*
X214500000Y-134500000D03*
%TD*%
D11*
%TO.C,R55*%
X208112500Y-121215000D03*
X209937500Y-121215000D03*
%TD*%
D19*
%TO.C,C51*%
X133095000Y-111315000D03*
X134995000Y-111315000D03*
%TD*%
D16*
%TO.C,U5*%
X185270000Y-95315000D03*
X185270000Y-96585000D03*
X185270000Y-97855000D03*
X185270000Y-99125000D03*
X185270000Y-100395000D03*
X185270000Y-101665000D03*
X185270000Y-102935000D03*
X190220000Y-102935000D03*
X190220000Y-101665000D03*
X190220000Y-100395000D03*
X190220000Y-99125000D03*
X190220000Y-97855000D03*
X190220000Y-96585000D03*
X190220000Y-95315000D03*
%TD*%
D11*
%TO.C,R94*%
X172612500Y-117925000D03*
X174437500Y-117925000D03*
%TD*%
D19*
%TO.C,C16*%
X167665000Y-80075000D03*
X169565000Y-80075000D03*
%TD*%
D26*
%TO.C,D9*%
X119537500Y-63345000D03*
X119537500Y-65245000D03*
X121412500Y-64295000D03*
%TD*%
D11*
%TO.C,R20*%
X108812500Y-74975000D03*
X110637500Y-74975000D03*
%TD*%
%TO.C,R80*%
X103112500Y-114635000D03*
X104937500Y-114635000D03*
%TD*%
D19*
%TO.C,C59*%
X163095000Y-111315000D03*
X164995000Y-111315000D03*
%TD*%
%TO.C,C44*%
X157050000Y-139800000D03*
X158950000Y-139800000D03*
%TD*%
D12*
%TO.C,U11*%
X201450000Y-131650000D03*
X200800000Y-131650000D03*
X200150000Y-131650000D03*
X199500000Y-131655000D03*
X198850000Y-131650000D03*
X198200000Y-131650000D03*
X197550000Y-131650000D03*
X197550000Y-137350000D03*
X198200000Y-137350000D03*
X198850000Y-137350000D03*
X199500000Y-137350000D03*
X200150000Y-137350000D03*
X200800000Y-137350000D03*
X201450000Y-137350000D03*
D13*
X199500000Y-134500000D03*
%TD*%
D11*
%TO.C,R9*%
X142812500Y-88125000D03*
X144637500Y-88125000D03*
%TD*%
D19*
%TO.C,C13*%
X153295000Y-80075000D03*
X155195000Y-80075000D03*
%TD*%
D31*
%TO.C,D3*%
X207625000Y-54295000D03*
X211925000Y-54295000D03*
%TD*%
D11*
%TO.C,R11*%
X142812500Y-84835000D03*
X144637500Y-84835000D03*
%TD*%
%TO.C,R91*%
X163112500Y-117925000D03*
X164937500Y-117925000D03*
%TD*%
D20*
%TO.C,D30*%
X127667500Y-111285000D03*
X129542500Y-111285000D03*
%TD*%
D11*
%TO.C,R3*%
X152312500Y-84835000D03*
X154137500Y-84835000D03*
%TD*%
D32*
%TO.C,C4*%
X209035000Y-63885000D03*
X212115000Y-63885000D03*
%TD*%
D26*
%TO.C,D7*%
X143037500Y-79845000D03*
X143037500Y-81745000D03*
X144912500Y-80795000D03*
%TD*%
D11*
%TO.C,R13*%
X108812500Y-71685000D03*
X110637500Y-71685000D03*
%TD*%
D19*
%TO.C,C55*%
X103095000Y-111315000D03*
X104995000Y-111315000D03*
%TD*%
%TO.C,C28*%
X111085000Y-95525000D03*
X112985000Y-95525000D03*
%TD*%
%TO.C,C56*%
X112050000Y-139800000D03*
X113950000Y-139800000D03*
%TD*%
D11*
%TO.C,R82*%
X112612500Y-114635000D03*
X114437500Y-114635000D03*
%TD*%
D26*
%TO.C,Q1*%
X124787500Y-63345000D03*
X124787500Y-65245000D03*
X126662500Y-64295000D03*
%TD*%
D11*
%TO.C,R97*%
X209922500Y-68475000D03*
X211747500Y-68475000D03*
%TD*%
D27*
%TO.C,C2*%
X186045000Y-56445000D03*
X192545000Y-56445000D03*
%TD*%
D19*
%TO.C,C49*%
X122885000Y-111315000D03*
X124785000Y-111315000D03*
%TD*%
D11*
%TO.C,R39*%
X178112500Y-121215000D03*
X179937500Y-121215000D03*
%TD*%
D16*
%TO.C,U9*%
X118060000Y-52815000D03*
X118060000Y-54085000D03*
X118060000Y-55355000D03*
X118060000Y-56625000D03*
X118060000Y-57895000D03*
X118060000Y-59165000D03*
X118060000Y-60435000D03*
X123010000Y-60435000D03*
X123010000Y-59165000D03*
X123010000Y-57895000D03*
X123010000Y-56625000D03*
X123010000Y-55355000D03*
X123010000Y-54085000D03*
X123010000Y-52815000D03*
%TD*%
D11*
%TO.C,R74*%
X142612500Y-114635000D03*
X144437500Y-114635000D03*
%TD*%
%TO.C,R23*%
X123062500Y-74975000D03*
X124887500Y-74975000D03*
%TD*%
D20*
%TO.C,D21*%
X207962500Y-142000000D03*
X209837500Y-142000000D03*
%TD*%
D19*
%TO.C,C52*%
X142050000Y-139800000D03*
X143950000Y-139800000D03*
%TD*%
D26*
%TO.C,D31*%
X118337500Y-106295000D03*
X118337500Y-108195000D03*
X120212500Y-107245000D03*
%TD*%
D11*
%TO.C,R50*%
X217612500Y-114635000D03*
X219437500Y-114635000D03*
%TD*%
D20*
%TO.C,D29*%
X117962500Y-142000000D03*
X119837500Y-142000000D03*
%TD*%
D19*
%TO.C,C37*%
X197885000Y-111315000D03*
X199785000Y-111315000D03*
%TD*%
%TO.C,C47*%
X118095000Y-111315000D03*
X119995000Y-111315000D03*
%TD*%
D20*
%TO.C,D42*%
X172667500Y-111285000D03*
X174542500Y-111285000D03*
%TD*%
D12*
%TO.C,U10*%
X186450000Y-131650000D03*
X185800000Y-131650000D03*
X185150000Y-131650000D03*
X184500000Y-131655000D03*
X183850000Y-131650000D03*
X183200000Y-131650000D03*
X182550000Y-131650000D03*
X182550000Y-137350000D03*
X183200000Y-137350000D03*
X183850000Y-137350000D03*
X184500000Y-137350000D03*
X185150000Y-137350000D03*
X185800000Y-137350000D03*
X186450000Y-137350000D03*
D13*
X184500000Y-134500000D03*
%TD*%
D26*
%TO.C,D4*%
X166617500Y-69295000D03*
X166617500Y-71195000D03*
X168492500Y-70245000D03*
%TD*%
D11*
%TO.C,R75*%
X133112500Y-117925000D03*
X134937500Y-117925000D03*
%TD*%
D20*
%TO.C,D25*%
X147962500Y-142000000D03*
X149837500Y-142000000D03*
%TD*%
D26*
%TO.C,D16*%
X183587500Y-106295000D03*
X183587500Y-108195000D03*
X185462500Y-107245000D03*
%TD*%
D11*
%TO.C,R64*%
X118112500Y-114635000D03*
X119937500Y-114635000D03*
%TD*%
D19*
%TO.C,C30*%
X188595000Y-106525000D03*
X190495000Y-106525000D03*
%TD*%
%TO.C,C54*%
X113595000Y-106525000D03*
X115495000Y-106525000D03*
%TD*%
D11*
%TO.C,R24*%
X127812500Y-74975000D03*
X129637500Y-74975000D03*
%TD*%
%TO.C,R95*%
X163112500Y-121215000D03*
X164937500Y-121215000D03*
%TD*%
%TO.C,R78*%
X142612500Y-117925000D03*
X144437500Y-117925000D03*
%TD*%
%TO.C,R7*%
X171312500Y-84835000D03*
X173137500Y-84835000D03*
%TD*%
%TO.C,R31*%
X127812500Y-78265000D03*
X129637500Y-78265000D03*
%TD*%
%TO.C,R19*%
X137312500Y-71685000D03*
X139137500Y-71685000D03*
%TD*%
D26*
%TO.C,D39*%
X103337500Y-106295000D03*
X103337500Y-108195000D03*
X105212500Y-107245000D03*
%TD*%
D30*
%TO.C,R85*%
X106912500Y-139800000D03*
X105087500Y-139800000D03*
%TD*%
D20*
%TO.C,D22*%
X217667500Y-111285000D03*
X219542500Y-111285000D03*
%TD*%
D26*
%TO.C,D28*%
X153587500Y-106295000D03*
X153587500Y-108195000D03*
X155462500Y-107245000D03*
%TD*%
D19*
%TO.C,C62*%
X200325000Y-68505000D03*
X202225000Y-68505000D03*
%TD*%
%TO.C,C3*%
X190745000Y-68505000D03*
X192645000Y-68505000D03*
%TD*%
D20*
%TO.C,D17*%
X192962500Y-142000000D03*
X194837500Y-142000000D03*
%TD*%
D26*
%TO.C,D43*%
X163337500Y-106295000D03*
X163337500Y-108195000D03*
X165212500Y-107245000D03*
%TD*%
D11*
%TO.C,R88*%
X163112500Y-114635000D03*
X164937500Y-114635000D03*
%TD*%
D19*
%TO.C,C60*%
X172050000Y-139800000D03*
X173950000Y-139800000D03*
%TD*%
D11*
%TO.C,R8*%
X176062500Y-84835000D03*
X177887500Y-84835000D03*
%TD*%
%TO.C,R33*%
X182862500Y-114635000D03*
X184687500Y-114635000D03*
%TD*%
D26*
%TO.C,D8*%
X148287500Y-79845000D03*
X148287500Y-81745000D03*
X150162500Y-80795000D03*
%TD*%
%TO.C,D44*%
X168587500Y-106295000D03*
X168587500Y-108195000D03*
X170462500Y-107245000D03*
%TD*%
D30*
%TO.C,R77*%
X136912500Y-139800000D03*
X135087500Y-139800000D03*
%TD*%
D11*
%TO.C,R46*%
X202612500Y-117925000D03*
X204437500Y-117925000D03*
%TD*%
D33*
%TO.C,H2*%
X220500000Y-53500000D03*
%TD*%
D34*
%TO.C,JP2*%
X157535000Y-70315000D03*
D35*
X157535000Y-72855000D03*
X157535000Y-75395000D03*
%TD*%
D19*
%TO.C,C33*%
X182885000Y-111315000D03*
X184785000Y-111315000D03*
%TD*%
D11*
%TO.C,R42*%
X202612500Y-114635000D03*
X204437500Y-114635000D03*
%TD*%
D26*
%TO.C,D27*%
X148337500Y-106295000D03*
X148337500Y-108195000D03*
X150212500Y-107245000D03*
%TD*%
D30*
%TO.C,R45*%
X196912500Y-139800000D03*
X195087500Y-139800000D03*
%TD*%
D11*
%TO.C,R18*%
X132562500Y-71685000D03*
X134387500Y-71685000D03*
%TD*%
D16*
%TO.C,U4*%
X109270000Y-52815000D03*
X109270000Y-54085000D03*
X109270000Y-55355000D03*
X109270000Y-56625000D03*
X109270000Y-57895000D03*
X109270000Y-59165000D03*
X109270000Y-60435000D03*
X114220000Y-60435000D03*
X114220000Y-59165000D03*
X114220000Y-57895000D03*
X114220000Y-56625000D03*
X114220000Y-55355000D03*
X114220000Y-54085000D03*
X114220000Y-52815000D03*
%TD*%
D11*
%TO.C,R89*%
X167862500Y-114635000D03*
X169687500Y-114635000D03*
%TD*%
D26*
%TO.C,D19*%
X193337500Y-106295000D03*
X193337500Y-108195000D03*
X195212500Y-107245000D03*
%TD*%
D11*
%TO.C,R68*%
X122862500Y-117925000D03*
X124687500Y-117925000D03*
%TD*%
D33*
%TO.C,H3*%
X103500000Y-162500000D03*
%TD*%
D26*
%TO.C,D12*%
X114287500Y-63345000D03*
X114287500Y-65245000D03*
X116162500Y-64295000D03*
%TD*%
D11*
%TO.C,R15*%
X118312500Y-71685000D03*
X120137500Y-71685000D03*
%TD*%
D19*
%TO.C,C48*%
X127050000Y-139800000D03*
X128950000Y-139800000D03*
%TD*%
D26*
%TO.C,D5*%
X171867500Y-69295000D03*
X171867500Y-71195000D03*
X173742500Y-70245000D03*
%TD*%
D19*
%TO.C,C58*%
X173595000Y-106525000D03*
X175495000Y-106525000D03*
%TD*%
D11*
%TO.C,R27*%
X108812500Y-78265000D03*
X110637500Y-78265000D03*
%TD*%
D26*
%TO.C,D24*%
X213587500Y-106295000D03*
X213587500Y-108195000D03*
X215462500Y-107245000D03*
%TD*%
%TO.C,D40*%
X108587500Y-106295000D03*
X108587500Y-108195000D03*
X110462500Y-107245000D03*
%TD*%
D19*
%TO.C,C20*%
X108795000Y-68365000D03*
X110695000Y-68365000D03*
%TD*%
D11*
%TO.C,R41*%
X197862500Y-114635000D03*
X199687500Y-114635000D03*
%TD*%
D20*
%TO.C,D41*%
X162962500Y-142000000D03*
X164837500Y-142000000D03*
%TD*%
D11*
%TO.C,R21*%
X113562500Y-74975000D03*
X115387500Y-74975000D03*
%TD*%
D19*
%TO.C,C8*%
X205115000Y-68505000D03*
X207015000Y-68505000D03*
%TD*%
%TO.C,C46*%
X128595000Y-106525000D03*
X130495000Y-106525000D03*
%TD*%
D11*
%TO.C,R29*%
X118312500Y-78265000D03*
X120137500Y-78265000D03*
%TD*%
D15*
%TO.C,D2*%
X185545000Y-63985000D03*
X189545000Y-63985000D03*
%TD*%
D11*
%TO.C,R63*%
X148112500Y-121215000D03*
X149937500Y-121215000D03*
%TD*%
%TO.C,R30*%
X123062500Y-78265000D03*
X124887500Y-78265000D03*
%TD*%
D30*
%TO.C,R53*%
X211912500Y-139800000D03*
X210087500Y-139800000D03*
%TD*%
D11*
%TO.C,R59*%
X148112500Y-117925000D03*
X149937500Y-117925000D03*
%TD*%
D19*
%TO.C,C41*%
X212885000Y-111315000D03*
X214785000Y-111315000D03*
%TD*%
D11*
%TO.C,R12*%
X147562500Y-84835000D03*
X149387500Y-84835000D03*
%TD*%
D19*
%TO.C,C5*%
X195535000Y-68505000D03*
X197435000Y-68505000D03*
%TD*%
D26*
%TO.C,D32*%
X123587500Y-106295000D03*
X123587500Y-108195000D03*
X125462500Y-107245000D03*
%TD*%
D11*
%TO.C,R48*%
X208112500Y-114635000D03*
X209937500Y-114635000D03*
%TD*%
%TO.C,R26*%
X137312500Y-74975000D03*
X139137500Y-74975000D03*
%TD*%
D19*
%TO.C,C18*%
X129795000Y-63575000D03*
X131695000Y-63575000D03*
%TD*%
D11*
%TO.C,R81*%
X107862500Y-114635000D03*
X109687500Y-114635000D03*
%TD*%
%TO.C,R14*%
X113562500Y-71685000D03*
X115387500Y-71685000D03*
%TD*%
D28*
%TO.C,U1*%
X197185000Y-53345000D03*
X197185000Y-55645000D03*
D29*
X203485000Y-55645000D03*
D28*
X197185000Y-57945000D03*
%TD*%
D19*
%TO.C,C50*%
X143595000Y-106525000D03*
X145495000Y-106525000D03*
%TD*%
D12*
%TO.C,U15*%
X141450000Y-131650000D03*
X140800000Y-131650000D03*
X140150000Y-131650000D03*
X139500000Y-131655000D03*
X138850000Y-131650000D03*
X138200000Y-131650000D03*
X137550000Y-131650000D03*
X137550000Y-137350000D03*
X138200000Y-137350000D03*
X138850000Y-137350000D03*
X139500000Y-137350000D03*
X140150000Y-137350000D03*
X140800000Y-137350000D03*
X141450000Y-137350000D03*
D13*
X139500000Y-134500000D03*
%TD*%
D19*
%TO.C,C57*%
X107885000Y-111315000D03*
X109785000Y-111315000D03*
%TD*%
D11*
%TO.C,R62*%
X157612500Y-117925000D03*
X159437500Y-117925000D03*
%TD*%
%TO.C,R49*%
X212862500Y-114635000D03*
X214687500Y-114635000D03*
%TD*%
D34*
%TO.C,JP1*%
X152605000Y-70315000D03*
D35*
X152605000Y-72855000D03*
X152605000Y-75395000D03*
%TD*%
D19*
%TO.C,C34*%
X203595000Y-106525000D03*
X205495000Y-106525000D03*
%TD*%
D20*
%TO.C,D37*%
X102962500Y-142000000D03*
X104837500Y-142000000D03*
%TD*%
D30*
%TO.C,R69*%
X121912500Y-139800000D03*
X120087500Y-139800000D03*
%TD*%
D33*
%TO.C,H1*%
X103500000Y-53500000D03*
%TD*%
D11*
%TO.C,R43*%
X193112500Y-117925000D03*
X194937500Y-117925000D03*
%TD*%
%TO.C,R28*%
X113562500Y-78265000D03*
X115387500Y-78265000D03*
%TD*%
D19*
%TO.C,C42*%
X158595000Y-106525000D03*
X160495000Y-106525000D03*
%TD*%
%TO.C,C19*%
X134585000Y-63575000D03*
X136485000Y-63575000D03*
%TD*%
D34*
%TO.C,JP3*%
X162465000Y-70315000D03*
D35*
X162465000Y-72855000D03*
X162465000Y-75395000D03*
%TD*%
D19*
%TO.C,C21*%
X113585000Y-68365000D03*
X115485000Y-68365000D03*
%TD*%
D26*
%TO.C,D20*%
X198587500Y-106295000D03*
X198587500Y-108195000D03*
X200462500Y-107245000D03*
%TD*%
%TO.C,D11*%
X109037500Y-63345000D03*
X109037500Y-65245000D03*
X110912500Y-64295000D03*
%TD*%
D19*
%TO.C,C24*%
X127955000Y-68365000D03*
X129855000Y-68365000D03*
%TD*%
%TO.C,C17*%
X172455000Y-80075000D03*
X174355000Y-80075000D03*
%TD*%
D11*
%TO.C,R5*%
X161812500Y-84835000D03*
X163637500Y-84835000D03*
%TD*%
D20*
%TO.C,D33*%
X132962500Y-142000000D03*
X134837500Y-142000000D03*
%TD*%
D33*
%TO.C,H4*%
X220500000Y-162500000D03*
%TD*%
D11*
%TO.C,R22*%
X118312500Y-74975000D03*
X120137500Y-74975000D03*
%TD*%
%TO.C,R16*%
X123062500Y-71685000D03*
X124887500Y-71685000D03*
%TD*%
%TO.C,R71*%
X118112500Y-121215000D03*
X119937500Y-121215000D03*
%TD*%
%TO.C,R35*%
X178112500Y-117925000D03*
X179937500Y-117925000D03*
%TD*%
D12*
%TO.C,U13*%
X156450000Y-131650000D03*
X155800000Y-131650000D03*
X155150000Y-131650000D03*
X154500000Y-131655000D03*
X153850000Y-131650000D03*
X153200000Y-131650000D03*
X152550000Y-131650000D03*
X152550000Y-137350000D03*
X153200000Y-137350000D03*
X153850000Y-137350000D03*
X154500000Y-137350000D03*
X155150000Y-137350000D03*
X155800000Y-137350000D03*
X156450000Y-137350000D03*
D13*
X154500000Y-134500000D03*
%TD*%
D11*
%TO.C,R65*%
X122862500Y-114635000D03*
X124687500Y-114635000D03*
%TD*%
D26*
%TO.C,D23*%
X208337500Y-106295000D03*
X208337500Y-108195000D03*
X210212500Y-107245000D03*
%TD*%
D11*
%TO.C,R40*%
X193112500Y-114635000D03*
X194937500Y-114635000D03*
%TD*%
%TO.C,R86*%
X112612500Y-117925000D03*
X114437500Y-117925000D03*
%TD*%
D19*
%TO.C,C23*%
X123165000Y-68365000D03*
X125065000Y-68365000D03*
%TD*%
D11*
%TO.C,R36*%
X182862500Y-117925000D03*
X184687500Y-117925000D03*
%TD*%
D26*
%TO.C,D10*%
X136807500Y-52795000D03*
X136807500Y-54695000D03*
X138682500Y-53745000D03*
%TD*%
D11*
%TO.C,R60*%
X152862500Y-117925000D03*
X154687500Y-117925000D03*
%TD*%
D19*
%TO.C,C29*%
X132745000Y-68365000D03*
X134645000Y-68365000D03*
%TD*%
D30*
%TO.C,R61*%
X151912500Y-139800000D03*
X150087500Y-139800000D03*
%TD*%
D19*
%TO.C,C53*%
X137885000Y-111315000D03*
X139785000Y-111315000D03*
%TD*%
D11*
%TO.C,R51*%
X208112500Y-117925000D03*
X209937500Y-117925000D03*
%TD*%
%TO.C,R25*%
X132562500Y-74975000D03*
X134387500Y-74975000D03*
%TD*%
D36*
%TO.C,D1*%
X149000000Y-62900000D03*
X149000000Y-56100000D03*
%TD*%
M02*
